<svg viewBox="0 0 40 40" fill="none" xmlns="http://www.w3.org/2000/svg">
<path d="M19.948 19.8485L20.356 15.7445L23.236 13.4885L24.868 16.4885L24.508 17.1365L22.66 16.0805L20.356 20.0885L19.948 19.8485ZM19.852 19.8245L19.444 20.0645L16.084 17.6645L15.58 14.0405L18.988 14.1125L19.372 14.7605L17.548 15.8165L19.852 19.8245ZM12.22 20.9285L13.996 18.0245H14.74V20.1365H19.372V20.6165L15.604 22.3205L12.22 20.9285ZM25.756 22.7765H25.012V20.6645H20.38V20.1845L24.148 18.4805L27.532 19.8485L25.756 22.7765ZM19.804 20.9285L19.396 25.0565L16.516 27.2885L14.884 24.3125L15.244 23.6645L17.068 24.7205L19.396 20.7125L19.804 20.9285ZM24.172 26.7605L20.764 26.6885L20.38 26.0405L22.228 24.9605L19.9 20.9765L20.308 20.7365L23.668 23.1365L24.172 26.7605Z" fill="white"/>
</svg>
