<svg width="48" height="48" viewBox="0 0 48 48" fill="none" xmlns="http://www.w3.org/2000/svg">
<path d="M19.2105 14C19.015 14.9615 18.6892 16.0032 18.2331 17.125C17.7444 18.2788 17.109 19.3686 16.3271 20.3942C15.5125 21.4199 14.5351 22.2212 13.3947 22.7981V22.9904L37 22.7019V25.2981L13.3947 25.0096V25.2019C14.6003 25.9391 15.594 26.8045 16.3759 27.7981C17.1579 28.7917 17.7769 29.8333 18.2331 30.9231C18.6566 32.0128 18.9825 33.0385 19.2105 34H16.3271C16.1642 32.8462 15.8709 31.7244 15.4474 30.6346C14.9912 29.5769 14.4048 28.5673 13.688 27.6058C12.9386 26.6442 12.0426 25.7468 11 24.9135V23.0865C12.4987 21.8365 13.7043 20.5064 14.6165 19.0962C15.4962 17.6859 16.0664 15.9872 16.3271 14H19.2105Z" fill="white"/>
</svg>
