<svg width="48" height="48" viewBox="0 0 48 48" fill="none" xmlns="http://www.w3.org/2000/svg">
<path fill-rule="evenodd" clip-rule="evenodd" d="M25.6799 8.25H12.5C10.1528 8.25 8.25 10.1528 8.25 12.5V15.564V16.314H9H15.25V17.1261V32V35.6315C15.25 37.9787 17.1528 39.8815 19.5 39.8815H35C37.6234 39.8815 39.75 37.7548 39.75 35.1315V32V31.25H39H37C35.2051 31.25 33.75 29.7949 33.75 28V25.8474C33.2613 25.9336 32.7604 25.9844 32.25 25.9969V28C32.25 29.2572 32.7384 30.4003 33.5359 31.25H26H23H22.25V32V35.6315C22.25 37.1502 21.0188 38.3815 19.5 38.3815C17.9812 38.3815 16.75 37.1502 16.75 35.6315V32V17.1261V15.564V12.5C16.75 11.4512 16.3701 10.4912 15.7405 9.75H24.1933C24.6347 9.1993 25.1333 8.69631 25.6799 8.25ZM35 38.3815H22.7405C23.3701 37.6402 23.75 36.6802 23.75 35.6315V32.75H26H37H38.25V35.1315C38.25 36.9264 36.7949 38.3815 35 38.3815ZM9.75 12.5C9.75 10.9812 10.9812 9.75 12.5 9.75C14.0188 9.75 15.25 10.9812 15.25 12.5V14.814H9.75V12.5Z" fill="white"/>
<circle cx="32.0008" cy="15.9998" r="7.2" stroke="white" stroke-width="1.5"/>
<path d="M28 15.4598L31 18.6998L36 13.2998" stroke="white" stroke-width="1.5"/>
</svg>
