<svg width="48" height="48" viewBox="0 0 48 48" fill="none" xmlns="http://www.w3.org/2000/svg">
<path d="M19.8833 8V7.25H18.3833V8H19.8833ZM33.8161 8V7.25H32.3161V8H33.8161ZM36 36.0506H16.1343V37.5506H36V36.0506ZM12.8843 32.8006V18.6473H11.3843V32.8006H12.8843ZM12.8843 18.6473V15.2735H11.3843V18.6473H12.8843ZM39.25 15.2735V18.6473H40.75V15.2735H39.25ZM39.25 18.6473V32.8006H40.75V18.6473H39.25ZM12.1343 19.3973H40V17.8973H12.1343V19.3973ZM16.1343 12.0235H19.1333V10.5235H16.1343V12.0235ZM19.8833 11.2735V8H18.3833V11.2735H19.8833ZM19.1333 12.0235H33.0661V10.5235H19.1333V12.0235ZM33.0661 12.0235H36V10.5235H33.0661V12.0235ZM33.8161 11.2735V8H32.3161V11.2735H33.8161ZM7.25 18.6473V33H8.75V18.6473H7.25ZM16 41.75H34.3357V40.25H16V41.75ZM16.1343 36.0506C14.3394 36.0506 12.8843 34.5955 12.8843 32.8006H11.3843C11.3843 35.424 13.5109 37.5506 16.1343 37.5506V36.0506ZM36 37.5506C38.6234 37.5506 40.75 35.424 40.75 32.8006H39.25C39.25 34.5955 37.7949 36.0506 36 36.0506V37.5506ZM7.25 33C7.25 37.8325 11.1675 41.75 16 41.75V40.25C11.9959 40.25 8.75 37.0041 8.75 33H7.25ZM40.75 15.2735C40.75 12.6502 38.6233 10.5235 36 10.5235V12.0235C37.7949 12.0235 39.25 13.4786 39.25 15.2735H40.75ZM12.8843 15.2735C12.8843 13.4786 14.3394 12.0235 16.1343 12.0235V10.5235C13.5109 10.5235 11.3843 12.6502 11.3843 15.2735H12.8843Z" fill="white"/>
</svg>
