<svg width="48" height="48" viewBox="0 0 48 48" fill="none" xmlns="http://www.w3.org/2000/svg">
<path fill-rule="evenodd" clip-rule="evenodd" d="M16.5857 14.1355C16.5857 11.4373 18.773 9.25 21.4712 9.25C21.7781 9.25 22.0784 9.2783 22.3696 9.33242C21.0348 10.5028 20.192 12.2207 20.192 14.1355V14.9305H16.5857V14.1355ZM21.692 14.9305H26.3567V14.1355C26.3567 12.3731 25.4235 10.8287 24.0243 9.96939C22.6252 10.8287 21.692 12.3731 21.692 14.1355V14.9305ZM25.6791 9.33242C27.0139 10.5028 27.8567 12.2207 27.8567 14.1355V14.9305H27.9035H31.4629V14.1355C31.4629 11.4373 29.2756 9.25 26.5775 9.25C26.2706 9.25 25.9703 9.2783 25.6791 9.33242ZM27.9035 16.4305H27.8567V21.0112C27.8567 21.4254 27.5209 21.7612 27.1067 21.7612C26.6925 21.7612 26.3567 21.4254 26.3567 21.0112V16.4305H20.942H16.5857V21.0112C16.5857 21.4254 16.25 21.7612 15.8357 21.7612C15.4215 21.7612 15.0857 21.4254 15.0857 21.0112V16.4305H14.9903C13.3134 16.4305 11.9118 17.7063 11.7546 19.3758L10.2645 35.195C10.0849 37.1019 11.5849 38.7498 13.5002 38.7498H28.4682H29.3935C31.3089 38.7498 32.8088 37.1019 32.6292 35.195L31.1392 19.3758C30.9819 17.7063 29.5804 16.4305 27.9035 16.4305ZM32.8576 38.7498C33.7533 37.7949 34.2563 36.4737 34.1226 35.0544L32.6326 19.2351C32.5302 18.148 32.0668 17.1752 31.3677 16.4305H32.2129H33.0097C34.6866 16.4305 36.0882 17.7063 36.2454 19.3758L37.7355 35.195C37.9151 37.1019 36.4151 38.7498 34.4998 38.7498H32.8576ZM29.3935 40.2498H28.4682H13.5002C10.7009 40.2498 8.50864 37.8413 8.77115 35.0544L10.2612 19.2351C10.491 16.7951 12.5395 14.9305 14.9903 14.9305H15.0857V14.1355C15.0857 10.6089 17.9446 7.75 21.4712 7.75C22.379 7.75 23.2425 7.93941 24.0243 8.28086C24.8062 7.93941 25.6697 7.75 26.5775 7.75C30.1041 7.75 32.9629 10.6089 32.9629 14.1355V14.9305H33.0097C35.4605 14.9305 37.509 16.7951 37.7388 19.2351L39.2289 35.0544C39.4914 37.8413 37.2991 40.2498 34.4998 40.2498H29.3935Z" fill="white"/>
</svg>
