<svg width="48" height="48" viewBox="0 0 48 48" fill="none" xmlns="http://www.w3.org/2000/svg">
<path fill-rule="evenodd" clip-rule="evenodd" d="M38.2492 9.57851V8.71074L37.3906 8.83642L21.9196 11.101C20.5691 11.2987 19.5679 12.457 19.5679 13.822V29.5497C18.5367 28.4077 17.0591 27.6894 15.4089 27.6894C12.2665 27.6894 9.75 30.2944 9.75 33.4691C9.75 36.6439 12.2665 39.2489 15.4089 39.2489C18.5511 39.2489 21.0674 36.6444 21.0679 33.47H21.0679V19.5333L36.7492 17.5857V27.0345C35.718 25.8925 34.2405 25.1742 32.5903 25.1742C29.4479 25.1742 26.9314 27.7792 26.9314 30.954C26.9314 34.1288 29.4479 36.7338 32.5903 36.7338C35.7328 36.7338 38.2493 34.1288 38.2493 30.954L38.2492 30.923V9.57851ZM36.7492 16.0742V10.4463L22.1369 12.5852C21.523 12.675 21.0679 13.2015 21.0679 13.822V18.0217L36.7492 16.0742ZM32.5903 26.6742C34.8616 26.6742 36.7351 28.5587 36.7492 30.9271V30.9551H36.7493C36.7487 33.3356 34.8698 35.2338 32.5903 35.2338C30.3105 35.2338 28.4314 33.335 28.4314 30.954C28.4314 28.573 30.3105 26.6742 32.5903 26.6742ZM11.25 33.4691C11.25 31.0882 13.1291 29.1894 15.4089 29.1894C17.6888 29.1894 19.5679 31.0882 19.5679 33.4691C19.5679 35.8501 17.6888 37.7489 15.4089 37.7489C13.1291 37.7489 11.25 35.8501 11.25 33.4691Z" fill="white"/>
</svg>
