<svg width="48" height="48" viewBox="0 0 48 48" fill="none" xmlns="http://www.w3.org/2000/svg">
<path fill-rule="evenodd" clip-rule="evenodd" d="M18.4291 8.55611C21.5131 7.73674 24.0212 8.65666 25.8715 10.209C27.7496 11.7847 28.9192 13.9917 29.2515 15.6233L29.4704 16.6976L30.3923 16.1043C31.5061 15.3875 33.4011 15.3515 34.891 16.2443C36.2975 17.0872 37.3814 18.7966 36.8079 21.6967L36.6062 22.7166L37.6377 22.5863C39.4782 22.3536 40.7858 22.8097 41.6436 23.5368C42.5115 24.2725 42.9905 25.3457 43.0563 26.4713C43.1222 27.5988 42.7705 28.7383 42.0282 29.5881C41.2974 30.4247 40.1478 31.0272 38.5126 31.0272L35.5283 31.0272L35.5283 32.5272L38.5126 32.5272C40.5494 32.5272 42.1223 31.7605 43.1579 30.575C44.1818 29.4027 44.6404 27.8674 44.5537 26.3838C44.4669 24.8983 43.8304 23.4241 42.6135 22.3925C41.5739 21.5113 40.1613 20.9955 38.4222 21.0267C38.7098 18.079 37.4662 16.0388 35.662 14.9576C34.0702 14.0037 32.0604 13.8194 30.4757 14.4009C29.8955 12.6172 28.6489 10.5812 26.8356 9.05985C24.6721 7.24476 21.6717 6.14257 18.044 7.1064C14.4754 8.05453 12.3251 10.1124 11.1918 12.5792C10.2111 14.7139 10.0118 17.1075 10.2348 19.2765C8.37789 19.3077 6.84952 19.9721 5.73912 21.0227C4.46003 22.2329 3.775 23.9183 3.75067 25.6208C3.72626 27.3284 4.36661 29.0716 5.75657 30.3841C7.14919 31.6991 9.23437 32.5272 12.0071 32.5272H12.8567V31.0272H12.0071C9.53681 31.0272 7.8471 30.295 6.78641 29.2934C5.72306 28.2894 5.23169 26.9596 5.25052 25.6422C5.26942 24.3196 5.80259 23.0277 6.77003 22.1123C7.72636 21.2075 9.14674 20.6332 11.0249 20.8058L11.9864 20.8942L11.8342 19.9407C11.483 17.7412 11.5968 15.2908 12.5549 13.2054C13.4983 11.1518 15.286 9.39119 18.4291 8.55611ZM22.2921 22.3668H22.852H25.5292H26.0879L26.2478 22.9021L26.6035 24.0925C27.042 24.2335 27.4641 24.4116 27.8664 24.6233L28.9447 24.0364L29.4404 23.7666L29.8369 24.1682L31.7267 26.0817L32.1143 26.4742L31.8551 26.9612L31.2693 28.0613C31.481 28.4711 31.6588 28.9012 31.7991 29.3478L32.9744 29.7041L33.5068 29.8655V30.4219V33.1288V33.6842L32.9756 33.8462L31.7993 34.2049C31.659 34.6518 31.4811 35.0821 31.2693 35.4921L31.8551 36.5923L32.1145 37.0796L31.7263 37.4721L29.8337 39.3857L29.4372 39.7866L28.9419 39.517L27.8637 38.9301C27.4616 39.1417 27.0398 39.3197 26.6017 39.4606L26.2483 40.6526L26.0891 41.1894H25.5292H22.852H22.2921L22.133 40.6526L21.7795 39.4606C21.3414 39.3197 20.9196 39.1417 20.5176 38.9301L19.4393 39.517L18.944 39.7866L18.5475 39.3857L16.6549 37.4721L16.2661 37.079L16.5267 36.5913L17.1143 35.4915C16.9028 35.0819 16.7251 34.652 16.5849 34.2056L15.4096 33.8493L14.8772 33.6879V33.1316V30.4247V29.8696L15.4081 29.7074L16.5818 29.3488C16.7222 28.9018 16.9001 28.4714 17.1119 28.0613L16.5262 26.9612L16.2667 26.4739L16.6549 26.0813L18.5475 24.1678L18.9446 23.7662L19.4403 24.037L20.5182 24.6258C20.92 24.4144 21.3416 24.2365 21.7795 24.0956L22.133 22.9036L22.2921 22.3668ZM23.4119 23.8668L23.1014 24.914L22.9813 25.319L22.5726 25.4262C21.9821 25.5811 21.423 25.8186 20.9078 26.1266L20.5398 26.3467L20.1634 26.1411L19.2168 25.6241L18.1096 26.7436L18.6266 27.7145L18.8233 28.0841L18.6119 28.4456C18.3067 28.9675 18.0711 29.5342 17.9174 30.1334L17.8128 30.5412L17.4101 30.6642L16.3772 30.9798V32.5752L17.4113 32.8887L17.8153 33.0112L17.9202 33.4201C18.0739 34.0192 18.3095 34.586 18.6147 35.1079L18.8265 35.47L18.6288 35.84L18.1103 36.8105L19.2175 37.93L20.1644 37.4146L20.5404 37.2099L20.9078 37.4296C21.423 37.7377 21.9821 37.9751 22.5726 38.13L22.9813 38.2372L23.1014 38.6423L23.4119 39.6894H24.9693L25.2798 38.6423L25.3999 38.2372L25.8086 38.13C26.3991 37.9751 26.9582 37.7377 27.4734 37.4296L27.8408 37.2099L28.2168 37.4146L29.1638 37.93L30.2716 36.8099L29.7547 35.839L29.5579 35.4693L29.7693 35.1079C30.0745 34.586 30.3101 34.0192 30.4638 33.4201L30.5685 33.012L30.9715 32.8891L32.0068 32.5734V30.9782L30.9727 30.6647L30.5687 30.5422L30.4638 30.1334C30.3101 29.5342 30.0745 28.9675 29.7693 28.4456L29.5579 28.0841L29.7547 27.7145L30.2718 26.7432L29.1661 25.6237L28.2196 26.1389L27.8436 26.3435L27.4762 26.1238C26.9609 25.8158 26.4019 25.5783 25.8114 25.4234L25.4037 25.3165L25.283 24.9127L24.9705 23.8668H23.4119ZM24.1932 28.4531C22.3893 28.4531 20.9127 29.9342 20.9127 31.779C20.9127 33.6238 22.3893 35.1049 24.1932 35.1049C25.997 35.1049 27.4737 33.6238 27.4737 31.779C27.4737 29.9342 25.997 28.4531 24.1932 28.4531ZM19.4127 31.779C19.4127 29.1217 21.5451 26.9531 24.1932 26.9531C26.8413 26.9531 28.9737 29.1217 28.9737 31.779C28.9737 34.4364 26.8413 36.6049 24.1932 36.6049C21.5451 36.6049 19.4127 34.4364 19.4127 31.779Z" fill="white"/>
</svg>
