<svg width="48" height="48" viewBox="0 0 48 48" fill="none" xmlns="http://www.w3.org/2000/svg">
<path d="M28.7895 34C28.985 33.0385 29.3108 31.9968 29.7669 30.875C30.2556 29.7212 30.891 28.6314 31.6729 27.6058C32.4875 26.5801 33.4649 25.7788 34.6053 25.2019V25.0096L11 25.2981V22.7019L34.6053 22.9904V22.7981C33.3997 22.0609 32.406 21.1955 31.6241 20.2019C30.8421 19.2083 30.2231 18.1667 29.7669 17.0769C29.3434 15.9872 29.0175 14.9615 28.7895 14H31.6729C31.8358 15.1538 32.1291 16.2756 32.5526 17.3654C33.0088 18.4231 33.5952 19.4327 34.312 20.3942C35.0614 21.3558 35.9574 22.2532 37 23.0865V24.9135C35.5013 26.1635 34.2957 27.4936 33.3835 28.9038C32.5038 30.3141 31.9336 32.0128 31.6729 34H28.7895Z" fill="white"/>
</svg>
