<svg width="48" height="48" viewBox="0 0 48 48" fill="none" xmlns="http://www.w3.org/2000/svg">
<path fill-rule="evenodd" clip-rule="evenodd" d="M9.75 16.535C9.75 12.7878 12.7878 9.75 16.535 9.75H31.535C35.2436 9.75 38.25 12.7564 38.25 16.465V17.6658V31C38.25 35.0041 35.0041 38.25 31 38.25H17C12.9959 38.25 9.75 35.0041 9.75 31V17.6658V16.535ZM16.535 8.25C11.9593 8.25 8.25 11.9593 8.25 16.535V17.6658V31C8.25 35.8325 12.1675 39.75 17 39.75H31C35.8325 39.75 39.75 35.8325 39.75 31V17.6658V16.465C39.75 11.928 36.072 8.25 31.535 8.25H16.535ZM18.8718 16.75H27.6376H30.1893L15.4697 31.4697L16.5303 32.5303L31.25 17.8107V21.2143V29.1282H32.75V21.2143V16C32.75 15.5858 32.4142 15.25 32 15.25H27.6376H18.8718V16.75Z" fill="white"/>
</svg>
