<svg width="1572" height="56" viewBox="0 0 1572 56" fill="none" xmlns="http://www.w3.org/2000/svg">
<path d="M20.3254 36.9846V1.26H26.8519V18.9781L51.3272 1.26H60.1663L39.4934 15.735L61.0793 36.9846H52.471L34.9184 18.9073L26.8519 24.6092V36.9846H20.3254Z" fill="url(#paint0_linear_1512_12172)"/>
<path d="M74.1622 1.26H67.6358V36.9846H74.1622V1.26Z" fill="url(#paint1_linear_1512_12172)"/>
<path d="M85.3841 36.9846V1.26H91.9105V18.9781L116.391 1.26H125.235L104.552 15.735L126.143 36.9846H117.53L99.982 18.9073L91.9105 24.6092V36.9846H85.3841Z" fill="url(#paint2_linear_1512_12172)"/>
<path d="M136.326 19.6611C136.326 23.9616 137.918 27.3565 141.102 29.8457C144.286 32.335 148.299 33.5711 153.142 33.5543C158.054 33.5543 162.091 32.3029 165.251 29.8002C168.412 27.2975 170 23.7458 170.017 19.1451C170.075 16.4692 169.364 13.8335 167.97 11.5559C166.539 9.30076 164.462 7.53662 162.016 6.4965C159.262 5.25964 156.276 4.63829 153.262 4.67511C148.647 4.67511 144.669 5.82866 141.328 8.13576C137.987 10.4429 136.328 14.2779 136.351 19.6409M129.624 19.57C129.608 13.6505 131.801 9.02284 136.206 5.687C140.61 2.35115 146.277 0.664679 153.207 0.627576C157.425 0.563472 161.612 1.36743 165.512 2.99033C169.168 4.56886 171.94 6.7714 173.829 9.59793C175.757 12.4098 176.769 15.7572 176.724 19.1754C176.769 22.6567 175.715 26.0622 173.714 28.8996C171.55 31.872 168.564 34.1338 165.131 35.401C161.316 36.8865 157.256 37.6315 153.167 37.5968C148.895 37.6673 144.656 36.8384 140.721 35.1632C137.062 33.534 134.293 31.3146 132.414 28.505C130.594 25.8925 129.609 22.7825 129.589 19.5903" fill="url(#paint3_linear_1512_12172)"/>
<path d="M72.0904 46.8454L69.7778 52.0819L67.5555 46.8454H65.8198L64.1243 54.905H65.9503L67.0539 49.7647L69.3615 54.905H70.1942L72.5319 49.6888L73.6505 54.905H75.4916L73.8462 46.8454H72.0904Z" fill="url(#paint4_linear_1512_12172)"/>
<path d="M91.0928 46.8454H89.332V54.905H95.0659V53.2911H91.0928V46.8454Z" fill="url(#paint5_linear_1512_12172)"/>
<path d="M82.8106 46.8454H81.0498V54.905H82.8106V46.8454Z" fill="url(#paint6_linear_1512_12172)"/>
<path d="M118.919 51.8087L115.177 46.8454H113.552V54.905H115.287V49.7849L119.17 54.905H120.66V46.8454H118.919V51.8087Z" fill="url(#paint7_linear_1512_12172)"/>
<path d="M103.283 46.7796L99.8516 54.905H101.637L102.38 53.1039H105.766L106.488 54.905H108.314L104.908 46.7796H103.283ZM103.012 51.5355L104.07 48.9197L105.134 51.5355H103.012Z" fill="url(#paint8_linear_1512_12172)"/>
<path d="M130.186 46.7138C129.634 46.6962 129.084 46.7909 128.568 46.9924C128.053 47.1939 127.583 47.4981 127.187 47.8867C126.791 48.2754 126.477 48.7405 126.263 49.2544C126.049 49.7683 125.94 50.3204 125.942 50.8777C125.938 51.433 126.045 51.9835 126.257 52.4959C126.469 53.0083 126.782 53.4721 127.177 53.8593C127.572 54.2464 128.04 54.549 128.554 54.7487C129.067 54.9485 129.616 55.0412 130.166 55.0214C130.72 55.0404 131.272 54.9468 131.788 54.746C132.305 54.5452 132.777 54.2414 133.175 53.8528C133.573 53.4642 133.889 52.9986 134.105 52.484C134.32 51.9694 134.431 51.4162 134.43 50.8575C134.434 50.3006 134.326 49.7488 134.112 49.2353C133.898 48.7218 133.584 48.2574 133.187 47.8701C132.79 47.4827 132.32 47.1806 131.804 46.9818C131.288 46.7831 130.738 46.6919 130.186 46.7138ZM132.599 50.898C132.615 51.2263 132.564 51.5543 132.449 51.8621C132.335 52.1698 132.159 52.4507 131.934 52.6876C131.708 52.9244 131.436 53.1123 131.136 53.2395C130.835 53.3668 130.512 53.4308 130.186 53.4277C129.861 53.4265 129.54 53.3596 129.241 53.2309C128.942 53.1022 128.672 52.9143 128.447 52.6785C128.221 52.4426 128.045 52.1634 127.929 51.8576C127.812 51.5518 127.758 51.2254 127.768 50.898C127.752 50.5708 127.802 50.2437 127.915 49.9366C128.028 49.6296 128.203 49.3491 128.427 49.1123C128.652 48.8755 128.922 48.6874 129.221 48.5595C129.52 48.4315 129.841 48.3665 130.166 48.3683C130.492 48.3674 130.815 48.4328 131.116 48.5606C131.416 48.6884 131.688 48.8759 131.915 49.112C132.142 49.3481 132.32 49.628 132.437 49.9348C132.555 50.2417 132.61 50.5692 132.599 50.898Z" fill="url(#paint9_linear_1512_12172)"/>
<path d="M216.725 36.9846V1.26H223.252V18.9781L247.727 1.26H256.566L235.893 15.735L257.479 36.9846H248.871L231.318 18.9073L223.252 24.6092V36.9846H216.725Z" fill="url(#paint10_linear_1512_12172)"/>
<path d="M270.562 1.26H264.036V36.9846H270.562V1.26Z" fill="url(#paint11_linear_1512_12172)"/>
<path d="M281.784 36.9846V1.26H288.311V18.9781L312.791 1.26H321.635L300.952 15.735L322.543 36.9846H313.93L296.382 18.9073L288.311 24.6092V36.9846H281.784Z" fill="url(#paint12_linear_1512_12172)"/>
<path d="M332.726 19.6611C332.726 23.9616 334.318 27.3565 337.502 29.8457C340.686 32.335 344.699 33.5711 349.542 33.5543C354.454 33.5543 358.491 32.3029 361.651 29.8002C364.812 27.2975 366.4 23.7458 366.417 19.1451C366.475 16.4692 365.764 13.8335 364.37 11.5559C362.939 9.30076 360.862 7.53662 358.416 6.4965C355.662 5.25964 352.676 4.63829 349.662 4.67511C345.047 4.67511 341.069 5.82866 337.728 8.13576C334.387 10.4429 332.728 14.2779 332.751 19.6409M326.024 19.57C326.008 13.6505 328.202 9.02284 332.606 5.687C337.01 2.35115 342.677 0.664679 349.607 0.627576C353.825 0.563472 358.012 1.36743 361.912 2.99033C365.568 4.56886 368.34 6.7714 370.23 9.59793C372.157 12.4098 373.169 15.7572 373.124 19.1754C373.169 22.6567 372.115 26.0622 370.114 28.8996C367.95 31.872 364.964 34.1338 361.531 35.401C357.716 36.8865 353.656 37.6315 349.567 37.5968C345.295 37.6673 341.057 36.8384 337.121 35.1632C333.462 33.534 330.693 31.3146 328.814 28.505C326.995 25.8925 326.009 22.7825 325.989 19.5903" fill="url(#paint13_linear_1512_12172)"/>
<path d="M268.49 46.8454L266.178 52.0819L263.956 46.8454H262.22L260.524 54.905H262.35L263.454 49.7647L265.761 54.905H266.594L268.932 49.6888L270.051 54.905H271.892L270.246 46.8454H268.49Z" fill="url(#paint14_linear_1512_12172)"/>
<path d="M287.493 46.8454H285.732V54.905H291.466V53.2911H287.493V46.8454Z" fill="url(#paint15_linear_1512_12172)"/>
<path d="M279.211 46.8454H277.45V54.905H279.211V46.8454Z" fill="url(#paint16_linear_1512_12172)"/>
<path d="M315.319 51.8087L311.577 46.8454H309.952V54.905H311.687V49.7849L315.57 54.905H317.06V46.8454H315.319V51.8087Z" fill="url(#paint17_linear_1512_12172)"/>
<path d="M299.683 46.7796L296.252 54.905H298.037L298.78 53.1039H302.166L302.888 54.905H304.714L301.308 46.7796H299.683ZM299.412 51.5355L300.47 48.9197L301.534 51.5355H299.412Z" fill="url(#paint18_linear_1512_12172)"/>
<path d="M326.586 46.7138C326.034 46.6962 325.484 46.7909 324.968 46.9924C324.453 47.1939 323.984 47.4981 323.587 47.8867C323.191 48.2754 322.877 48.7405 322.663 49.2544C322.449 49.7683 322.34 50.3204 322.342 50.8777C322.338 51.433 322.445 51.9835 322.657 52.4959C322.869 53.0083 323.182 53.4721 323.577 53.8593C323.972 54.2464 324.44 54.549 324.954 54.7487C325.467 54.9485 326.016 55.0412 326.566 55.0214C327.12 55.0404 327.672 54.9468 328.189 54.746C328.705 54.5452 329.177 54.2414 329.575 53.8528C329.973 53.4642 330.289 52.9986 330.505 52.484C330.721 51.9694 330.831 51.4162 330.83 50.8575C330.834 50.3006 330.726 49.7488 330.512 49.2353C330.298 48.7218 329.984 48.2574 329.587 47.8701C329.19 47.4827 328.72 47.1806 328.204 46.9818C327.688 46.7831 327.138 46.6919 326.586 46.7138ZM328.999 50.898C329.015 51.2263 328.964 51.5543 328.849 51.8621C328.735 52.1698 328.559 52.4507 328.334 52.6876C328.108 52.9244 327.836 53.1123 327.536 53.2395C327.235 53.3668 326.912 53.4308 326.586 53.4277C326.261 53.4265 325.94 53.3596 325.641 53.2309C325.342 53.1022 325.072 52.9143 324.847 52.6785C324.621 52.4426 324.445 52.1634 324.329 51.8576C324.212 51.5518 324.158 51.2254 324.168 50.898C324.152 50.5708 324.202 50.2437 324.315 49.9366C324.428 49.6296 324.603 49.3491 324.827 49.1123C325.052 48.8755 325.322 48.6874 325.621 48.5595C325.92 48.4315 326.241 48.3665 326.566 48.3683C326.892 48.3674 327.215 48.4328 327.516 48.5606C327.816 48.6884 328.088 48.8759 328.315 49.112C328.542 49.3481 328.72 49.628 328.837 49.9348C328.955 50.2417 329.01 50.5692 328.999 50.898Z" fill="url(#paint19_linear_1512_12172)"/>
<path d="M413.125 36.9846V1.26H419.652V18.9781L444.127 1.26H452.966L432.293 15.735L453.879 36.9846H445.271L427.718 18.9073L419.652 24.6092V36.9846H413.125Z" fill="url(#paint20_linear_1512_12172)"/>
<path d="M466.962 1.26H460.436V36.9846H466.962V1.26Z" fill="url(#paint21_linear_1512_12172)"/>
<path d="M478.184 36.9846V1.26H484.711V18.9781L509.191 1.26H518.035L497.352 15.735L518.943 36.9846H510.33L492.782 18.9073L484.711 24.6092V36.9846H478.184Z" fill="url(#paint22_linear_1512_12172)"/>
<path d="M529.126 19.6611C529.126 23.9616 530.718 27.3565 533.902 29.8457C537.086 32.335 541.099 33.5711 545.942 33.5543C550.854 33.5543 554.891 32.3029 558.051 29.8002C561.212 27.2975 562.8 23.7458 562.817 19.1451C562.875 16.4692 562.164 13.8335 560.77 11.5559C559.339 9.30076 557.262 7.53662 554.816 6.4965C552.062 5.25964 549.076 4.63829 546.062 4.67511C541.447 4.67511 537.469 5.82866 534.128 8.13576C530.787 10.4429 529.128 14.2779 529.151 19.6409M522.424 19.57C522.408 13.6505 524.602 9.02284 529.006 5.687C533.41 2.35115 539.077 0.664679 546.007 0.627576C550.225 0.563472 554.412 1.36743 558.312 2.99033C561.968 4.56886 564.74 6.7714 566.63 9.59793C568.557 12.4098 569.569 15.7572 569.524 19.1754C569.569 22.6567 568.515 26.0622 566.514 28.8996C564.35 31.872 561.365 34.1338 557.931 35.401C554.116 36.8865 550.056 37.6315 545.967 37.5968C541.695 37.6673 537.456 36.8384 533.521 35.1632C529.862 33.534 527.093 31.3146 525.214 28.505C523.395 25.8925 522.409 22.7825 522.389 19.5903" fill="url(#paint23_linear_1512_12172)"/>
<path d="M464.89 46.8454L462.578 52.0819L460.356 46.8454H458.62L456.924 54.905H458.75L459.854 49.7647L462.161 54.905H462.994L465.332 49.6888L466.451 54.905H468.292L466.646 46.8454H464.89Z" fill="url(#paint24_linear_1512_12172)"/>
<path d="M483.893 46.8454H482.132V54.905H487.866V53.2911H483.893V46.8454Z" fill="url(#paint25_linear_1512_12172)"/>
<path d="M475.611 46.8454H473.85V54.905H475.611V46.8454Z" fill="url(#paint26_linear_1512_12172)"/>
<path d="M511.719 51.8087L507.977 46.8454H506.352V54.905H508.087V49.7849L511.97 54.905H513.46V46.8454H511.719V51.8087Z" fill="url(#paint27_linear_1512_12172)"/>
<path d="M496.083 46.7796L492.652 54.905H494.438L495.18 53.1039H498.566L499.288 54.905H501.114L497.708 46.7796H496.083ZM495.812 51.5355L496.87 48.9197L497.934 51.5355H495.812Z" fill="url(#paint28_linear_1512_12172)"/>
<path d="M522.986 46.7138C522.434 46.6962 521.884 46.7909 521.368 46.9924C520.853 47.1939 520.384 47.4981 519.987 47.8867C519.591 48.2754 519.277 48.7405 519.063 49.2544C518.849 49.7683 518.74 50.3204 518.742 50.8777C518.738 51.433 518.845 51.9835 519.057 52.4959C519.269 53.0083 519.582 53.4721 519.977 53.8593C520.372 54.2464 520.84 54.549 521.354 54.7487C521.867 54.9485 522.416 55.0412 522.966 55.0214C523.52 55.0404 524.072 54.9468 524.589 54.746C525.105 54.5452 525.577 54.2414 525.975 53.8528C526.373 53.4642 526.689 52.9986 526.905 52.484C527.121 51.9694 527.231 51.4162 527.23 50.8575C527.234 50.3006 527.126 49.7488 526.912 49.2353C526.698 48.7218 526.384 48.2574 525.987 47.8701C525.59 47.4827 525.12 47.1806 524.604 46.9818C524.088 46.7831 523.538 46.6919 522.986 46.7138ZM525.399 50.898C525.415 51.2263 525.364 51.5543 525.25 51.8621C525.135 52.1698 524.959 52.4507 524.734 52.6876C524.508 52.9244 524.236 53.1123 523.936 53.2395C523.635 53.3668 523.312 53.4308 522.986 53.4277C522.661 53.4265 522.34 53.3596 522.041 53.2309C521.743 53.1022 521.472 52.9143 521.247 52.6785C521.021 52.4426 520.845 52.1634 520.729 51.8576C520.612 51.5518 520.558 51.2254 520.568 50.898C520.552 50.5708 520.602 50.2437 520.715 49.9366C520.828 49.6296 521.003 49.3491 521.227 49.1123C521.452 48.8755 521.722 48.6874 522.021 48.5595C522.32 48.4315 522.641 48.3665 522.966 48.3683C523.292 48.3674 523.615 48.4328 523.916 48.5606C524.216 48.6884 524.488 48.8759 524.715 49.112C524.942 49.3481 525.12 49.628 525.237 49.9348C525.355 50.2417 525.41 50.5692 525.399 50.898Z" fill="url(#paint29_linear_1512_12172)"/>
<path d="M609.526 36.9846V1.26H616.052V18.9781L640.527 1.26H649.366L628.693 15.735L650.279 36.9846H641.671L624.118 18.9073L616.052 24.6092V36.9846H609.526Z" fill="url(#paint30_linear_1512_12172)"/>
<path d="M663.362 1.26H656.836V36.9846H663.362V1.26Z" fill="url(#paint31_linear_1512_12172)"/>
<path d="M674.584 36.9846V1.26H681.111V18.9781L705.591 1.26H714.435L693.752 15.735L715.343 36.9846H706.73L689.182 18.9073L681.111 24.6092V36.9846H674.584Z" fill="url(#paint32_linear_1512_12172)"/>
<path d="M725.526 19.6611C725.526 23.9616 727.118 27.3565 730.302 29.8457C733.486 32.335 737.499 33.5711 742.342 33.5543C747.254 33.5543 751.291 32.3029 754.451 29.8002C757.612 27.2975 759.2 23.7458 759.217 19.1451C759.275 16.4692 758.564 13.8335 757.17 11.5559C755.739 9.30076 753.662 7.53662 751.216 6.4965C748.462 5.25964 745.476 4.63829 742.462 4.67511C737.847 4.67511 733.869 5.82866 730.528 8.13576C727.187 10.4429 725.528 14.2779 725.552 19.6409M718.824 19.57C718.808 13.6505 721.002 9.02284 725.406 5.687C729.811 2.35115 735.477 0.664679 742.407 0.627576C746.625 0.563472 750.812 1.36743 754.712 2.99033C758.368 4.56886 761.14 6.7714 763.03 9.59793C764.957 12.4098 765.969 15.7572 765.924 19.1754C765.969 22.6567 764.915 26.0622 762.914 28.8996C760.75 31.872 757.765 34.1338 754.331 35.401C750.516 36.8865 746.456 37.6315 742.367 37.5968C738.095 37.6673 733.857 36.8384 729.921 35.1632C726.262 33.534 723.493 31.3146 721.614 28.505C719.795 25.8925 718.809 22.7825 718.789 19.5903" fill="url(#paint33_linear_1512_12172)"/>
<path d="M661.291 46.8454L658.978 52.0819L656.756 46.8454H655.02L653.324 54.905H655.15L656.254 49.7647L658.562 54.905H659.394L661.732 49.6888L662.851 54.905H664.692L663.046 46.8454H661.291Z" fill="url(#paint34_linear_1512_12172)"/>
<path d="M680.293 46.8454H678.532V54.905H684.266V53.2911H680.293V46.8454Z" fill="url(#paint35_linear_1512_12172)"/>
<path d="M672.011 46.8454H670.25V54.905H672.011V46.8454Z" fill="url(#paint36_linear_1512_12172)"/>
<path d="M708.119 51.8087L704.377 46.8454H702.752V54.905H704.487V49.7849L708.37 54.905H709.86V46.8454H708.119V51.8087Z" fill="url(#paint37_linear_1512_12172)"/>
<path d="M692.483 46.7796L689.052 54.905H690.838L691.58 53.1039H694.966L695.688 54.905H697.514L694.108 46.7796H692.483ZM692.212 51.5355L693.271 48.9197L694.334 51.5355H692.212Z" fill="url(#paint38_linear_1512_12172)"/>
<path d="M719.386 46.7138C718.834 46.6962 718.284 46.7909 717.768 46.9924C717.253 47.1939 716.784 47.4981 716.387 47.8867C715.991 48.2754 715.677 48.7405 715.463 49.2544C715.249 49.7683 715.14 50.3204 715.142 50.8777C715.138 51.433 715.245 51.9835 715.457 52.4959C715.669 53.0083 715.982 53.4721 716.377 53.8593C716.772 54.2464 717.24 54.549 717.754 54.7487C718.267 54.9485 718.816 55.0412 719.366 55.0214C719.92 55.0404 720.472 54.9468 720.989 54.746C721.505 54.5452 721.977 54.2414 722.375 53.8528C722.773 53.4642 723.089 52.9986 723.305 52.484C723.521 51.9694 723.631 51.4162 723.63 50.8575C723.634 50.3006 723.526 49.7488 723.312 49.2353C723.098 48.7218 722.784 48.2574 722.387 47.8701C721.99 47.4827 721.52 47.1806 721.004 46.9818C720.488 46.7831 719.938 46.6919 719.386 46.7138ZM721.799 50.898C721.815 51.2263 721.764 51.5543 721.65 51.8621C721.535 52.1698 721.36 52.4507 721.134 52.6876C720.908 52.9244 720.636 53.1123 720.336 53.2395C720.035 53.3668 719.712 53.4308 719.386 53.4277C719.061 53.4265 718.74 53.3596 718.441 53.2309C718.143 53.1022 717.872 52.9143 717.647 52.6785C717.422 52.4426 717.245 52.1634 717.129 51.8576C717.012 51.5518 716.958 51.2254 716.968 50.898C716.952 50.5708 717.002 50.2437 717.115 49.9366C717.228 49.6296 717.403 49.3491 717.627 49.1123C717.852 48.8755 718.122 48.6874 718.421 48.5595C718.72 48.4315 719.041 48.3665 719.366 48.3683C719.692 48.3674 720.015 48.4328 720.316 48.5606C720.616 48.6884 720.888 48.8759 721.115 49.112C721.342 49.3481 721.52 49.628 721.638 49.9348C721.755 50.2417 721.81 50.5692 721.799 50.898Z" fill="url(#paint39_linear_1512_12172)"/>
<path d="M805.925 36.9846V1.26H812.452V18.9781L836.927 1.26H845.766L825.093 15.735L846.679 36.9846H838.071L820.518 18.9073L812.452 24.6092V36.9846H805.925Z" fill="url(#paint40_linear_1512_12172)"/>
<path d="M859.762 1.26H853.236V36.9846H859.762V1.26Z" fill="url(#paint41_linear_1512_12172)"/>
<path d="M870.984 36.9846V1.26H877.511V18.9781L901.991 1.26H910.835L890.152 15.735L911.743 36.9846H903.13L885.582 18.9073L877.511 24.6092V36.9846H870.984Z" fill="url(#paint42_linear_1512_12172)"/>
<path d="M921.926 19.6611C921.926 23.9616 923.518 27.3565 926.702 29.8457C929.886 32.335 933.899 33.5711 938.742 33.5543C943.654 33.5543 947.691 32.3029 950.851 29.8002C954.012 27.2975 955.6 23.7458 955.617 19.1451C955.675 16.4692 954.964 13.8335 953.57 11.5559C952.139 9.30076 950.062 7.53662 947.616 6.4965C944.862 5.25964 941.876 4.63829 938.862 4.67511C934.247 4.67511 930.269 5.82866 926.928 8.13576C923.587 10.4429 921.928 14.2779 921.951 19.6409M915.224 19.57C915.208 13.6505 917.402 9.02284 921.806 5.687C926.211 2.35115 931.877 0.664679 938.807 0.627576C943.025 0.563472 947.212 1.36743 951.112 2.99033C954.768 4.56886 957.54 6.7714 959.43 9.59793C961.357 12.4098 962.369 15.7572 962.324 19.1754C962.369 22.6567 961.315 26.0622 959.314 28.8996C957.15 31.872 954.164 34.1338 950.731 35.401C946.916 36.8865 942.856 37.6315 938.767 37.5968C934.495 37.6673 930.256 36.8384 926.321 35.1632C922.662 33.534 919.893 31.3146 918.014 28.505C916.195 25.8925 915.209 22.7825 915.189 19.5903" fill="url(#paint43_linear_1512_12172)"/>
<path d="M857.69 46.8454L855.378 52.0819L853.156 46.8454H851.42L849.724 54.905H851.55L852.654 49.7647L854.961 54.905H855.794L858.132 49.6888L859.251 54.905H861.092L859.446 46.8454H857.69Z" fill="url(#paint44_linear_1512_12172)"/>
<path d="M876.693 46.8454H874.932V54.905H880.666V53.2911H876.693V46.8454Z" fill="url(#paint45_linear_1512_12172)"/>
<path d="M868.411 46.8454H866.65V54.905H868.411V46.8454Z" fill="url(#paint46_linear_1512_12172)"/>
<path d="M904.519 51.8087L900.777 46.8454H899.152V54.905H900.887V49.7849L904.77 54.905H906.26V46.8454H904.519V51.8087Z" fill="url(#paint47_linear_1512_12172)"/>
<path d="M888.883 46.7796L885.452 54.905H887.237L887.98 53.1039H891.366L892.088 54.905H893.914L890.508 46.7796H888.883ZM888.612 51.5355L889.67 48.9197L890.734 51.5355H888.612Z" fill="url(#paint48_linear_1512_12172)"/>
<path d="M915.786 46.7138C915.234 46.6962 914.684 46.7909 914.168 46.9924C913.653 47.1939 913.184 47.4981 912.787 47.8867C912.391 48.2754 912.077 48.7405 911.863 49.2544C911.649 49.7683 911.54 50.3204 911.542 50.8777C911.538 51.433 911.645 51.9835 911.857 52.4959C912.069 53.0083 912.382 53.4721 912.777 53.8593C913.172 54.2464 913.64 54.549 914.154 54.7487C914.667 54.9485 915.216 55.0412 915.766 55.0214C916.32 55.0404 916.872 54.9468 917.388 54.746C917.905 54.5452 918.377 54.2414 918.775 53.8528C919.173 53.4642 919.489 52.9986 919.705 52.484C919.921 51.9694 920.031 51.4162 920.03 50.8575C920.034 50.3006 919.926 49.7488 919.712 49.2353C919.498 48.7218 919.184 48.2574 918.787 47.8701C918.39 47.4827 917.92 47.1806 917.404 46.9818C916.888 46.7831 916.338 46.6919 915.786 46.7138ZM918.199 50.898C918.215 51.2263 918.164 51.5543 918.049 51.8621C917.935 52.1698 917.76 52.4507 917.534 52.6876C917.308 52.9244 917.036 53.1123 916.736 53.2395C916.435 53.3668 916.112 53.4308 915.786 53.4277C915.461 53.4265 915.14 53.3596 914.841 53.2309C914.542 53.1022 914.272 52.9143 914.047 52.6785C913.821 52.4426 913.645 52.1634 913.529 51.8576C913.412 51.5518 913.358 51.2254 913.368 50.898C913.352 50.5708 913.402 50.2437 913.515 49.9366C913.628 49.6296 913.803 49.3491 914.027 49.1123C914.252 48.8755 914.522 48.6874 914.821 48.5595C915.12 48.4315 915.441 48.3665 915.766 48.3683C916.092 48.3674 916.415 48.4328 916.716 48.5606C917.016 48.6884 917.288 48.8759 917.515 49.112C917.742 49.3481 917.92 49.628 918.037 49.9348C918.155 50.2417 918.21 50.5692 918.199 50.898Z" fill="url(#paint49_linear_1512_12172)"/>
<path d="M1002.33 36.9846V1.26H1008.85V18.9781L1033.33 1.26H1042.17L1021.49 15.735L1043.08 36.9846H1034.47L1016.92 18.9073L1008.85 24.6092V36.9846H1002.33Z" fill="url(#paint50_linear_1512_12172)"/>
<path d="M1056.16 1.26H1049.64V36.9846H1056.16V1.26Z" fill="url(#paint51_linear_1512_12172)"/>
<path d="M1067.38 36.9846V1.26H1073.91V18.9781L1098.39 1.26H1107.23L1086.55 15.735L1108.14 36.9846H1099.53L1081.98 18.9073L1073.91 24.6092V36.9846H1067.38Z" fill="url(#paint52_linear_1512_12172)"/>
<path d="M1118.33 19.6611C1118.33 23.9616 1119.92 27.3565 1123.1 29.8457C1126.29 32.335 1130.3 33.5711 1135.14 33.5543C1140.05 33.5543 1144.09 32.3029 1147.25 29.8002C1150.41 27.2975 1152 23.7458 1152.02 19.1451C1152.07 16.4692 1151.36 13.8335 1149.97 11.5559C1148.54 9.30076 1146.46 7.53662 1144.02 6.4965C1141.26 5.25964 1138.28 4.63829 1135.26 4.67511C1130.65 4.67511 1126.67 5.82866 1123.33 8.13576C1119.99 10.4429 1118.33 14.2779 1118.35 19.6409M1111.62 19.57C1111.61 13.6505 1113.8 9.02284 1118.21 5.687C1122.61 2.35115 1128.28 0.664679 1135.21 0.627576C1139.43 0.563472 1143.61 1.36743 1147.51 2.99033C1151.17 4.56886 1153.94 6.7714 1155.83 9.59793C1157.76 12.4098 1158.77 15.7572 1158.72 19.1754C1158.77 22.6567 1157.71 26.0622 1155.71 28.8996C1153.55 31.872 1150.56 34.1338 1147.13 35.401C1143.32 36.8865 1139.26 37.6315 1135.17 37.5968C1130.9 37.6673 1126.66 36.8384 1122.72 35.1632C1119.06 33.534 1116.29 31.3146 1114.41 28.505C1112.59 25.8925 1111.61 22.7825 1111.59 19.5903" fill="url(#paint53_linear_1512_12172)"/>
<path d="M1054.09 46.8454L1051.78 52.0819L1049.56 46.8454H1047.82L1046.12 54.905H1047.95L1049.05 49.7647L1051.36 54.905H1052.19L1054.53 49.6888L1055.65 54.905H1057.49L1055.85 46.8454H1054.09Z" fill="url(#paint54_linear_1512_12172)"/>
<path d="M1073.09 46.8454H1071.33V54.905H1077.07V53.2911H1073.09V46.8454Z" fill="url(#paint55_linear_1512_12172)"/>
<path d="M1064.81 46.8454H1063.05V54.905H1064.81V46.8454Z" fill="url(#paint56_linear_1512_12172)"/>
<path d="M1100.92 51.8087L1097.18 46.8454H1095.55V54.905H1097.29V49.7849L1101.17 54.905H1102.66V46.8454H1100.92V51.8087Z" fill="url(#paint57_linear_1512_12172)"/>
<path d="M1085.28 46.7796L1081.85 54.905H1083.64L1084.38 53.1039H1087.77L1088.49 54.905H1090.31L1086.91 46.7796H1085.28ZM1085.01 51.5355L1086.07 48.9197L1087.13 51.5355H1085.01Z" fill="url(#paint58_linear_1512_12172)"/>
<path d="M1112.19 46.7138C1111.63 46.6962 1111.08 46.7909 1110.57 46.9924C1110.05 47.1939 1109.58 47.4981 1109.19 47.8867C1108.79 48.2754 1108.48 48.7405 1108.26 49.2544C1108.05 49.7683 1107.94 50.3204 1107.94 50.8777C1107.94 51.433 1108.05 51.9835 1108.26 52.4959C1108.47 53.0083 1108.78 53.4721 1109.18 53.8593C1109.57 54.2464 1110.04 54.549 1110.55 54.7487C1111.07 54.9485 1111.62 55.0412 1112.17 55.0214C1112.72 55.0404 1113.27 54.9468 1113.79 54.746C1114.31 54.5452 1114.78 54.2414 1115.17 53.8528C1115.57 53.4642 1115.89 52.9986 1116.1 52.484C1116.32 51.9694 1116.43 51.4162 1116.43 50.8575C1116.43 50.3006 1116.33 49.7488 1116.11 49.2353C1115.9 48.7218 1115.58 48.2574 1115.19 47.8701C1114.79 47.4827 1114.32 47.1806 1113.8 46.9818C1113.29 46.7831 1112.74 46.6919 1112.19 46.7138ZM1114.6 50.898C1114.61 51.2263 1114.56 51.5543 1114.45 51.8621C1114.33 52.1698 1114.16 52.4507 1113.93 52.6876C1113.71 52.9244 1113.44 53.1123 1113.14 53.2395C1112.84 53.3668 1112.51 53.4308 1112.19 53.4277C1111.86 53.4265 1111.54 53.3596 1111.24 53.2309C1110.94 53.1022 1110.67 52.9143 1110.45 52.6785C1110.22 52.4426 1110.05 52.1634 1109.93 51.8576C1109.81 51.5518 1109.76 51.2254 1109.77 50.898C1109.75 50.5708 1109.8 50.2437 1109.92 49.9366C1110.03 49.6296 1110.2 49.3491 1110.43 49.1123C1110.65 48.8755 1110.92 48.6874 1111.22 48.5595C1111.52 48.4315 1111.84 48.3665 1112.17 48.3683C1112.49 48.3674 1112.82 48.4328 1113.12 48.5606C1113.42 48.6884 1113.69 48.8759 1113.92 49.112C1114.14 49.3481 1114.32 49.628 1114.44 49.9348C1114.55 50.2417 1114.61 50.5692 1114.6 50.898Z" fill="url(#paint59_linear_1512_12172)"/>
<path d="M1198.73 36.9846V1.26H1205.25V18.9781L1229.73 1.26H1238.57L1217.89 15.735L1239.48 36.9846H1230.87L1213.32 18.9073L1205.25 24.6092V36.9846H1198.73Z" fill="url(#paint60_linear_1512_12172)"/>
<path d="M1252.56 1.26H1246.04V36.9846H1252.56V1.26Z" fill="url(#paint61_linear_1512_12172)"/>
<path d="M1263.78 36.9846V1.26H1270.31V18.9781L1294.79 1.26H1303.64L1282.95 15.735L1304.54 36.9846H1295.93L1278.38 18.9073L1270.31 24.6092V36.9846H1263.78Z" fill="url(#paint62_linear_1512_12172)"/>
<path d="M1314.73 19.6611C1314.73 23.9616 1316.32 27.3565 1319.5 29.8457C1322.69 32.335 1326.7 33.5711 1331.54 33.5543C1336.45 33.5543 1340.49 32.3029 1343.65 29.8002C1346.81 27.2975 1348.4 23.7458 1348.42 19.1451C1348.47 16.4692 1347.76 13.8335 1346.37 11.5559C1344.94 9.30076 1342.86 7.53662 1340.42 6.4965C1337.66 5.25964 1334.68 4.63829 1331.66 4.67511C1327.05 4.67511 1323.07 5.82866 1319.73 8.13576C1316.39 10.4429 1314.73 14.2779 1314.75 19.6409M1308.02 19.57C1308.01 13.6505 1310.2 9.02284 1314.61 5.687C1319.01 2.35115 1324.68 0.664679 1331.61 0.627576C1335.83 0.563472 1340.01 1.36743 1343.91 2.99033C1347.57 4.56886 1350.34 6.7714 1352.23 9.59793C1354.16 12.4098 1355.17 15.7572 1355.12 19.1754C1355.17 22.6567 1354.11 26.0622 1352.11 28.8996C1349.95 31.872 1346.96 34.1338 1343.53 35.401C1339.72 36.8865 1335.66 37.6315 1331.57 37.5968C1327.3 37.6673 1323.06 36.8384 1319.12 35.1632C1315.46 33.534 1312.69 31.3146 1310.81 28.505C1308.99 25.8925 1308.01 22.7825 1307.99 19.5903" fill="url(#paint63_linear_1512_12172)"/>
<path d="M1250.49 46.8454L1248.18 52.0819L1245.96 46.8454H1244.22L1242.52 54.905H1244.35L1245.45 49.7647L1247.76 54.905H1248.59L1250.93 49.6888L1252.05 54.905H1253.89L1252.25 46.8454H1250.49Z" fill="url(#paint64_linear_1512_12172)"/>
<path d="M1269.49 46.8454H1267.73V54.905H1273.47V53.2911H1269.49V46.8454Z" fill="url(#paint65_linear_1512_12172)"/>
<path d="M1261.21 46.8454H1259.45V54.905H1261.21V46.8454Z" fill="url(#paint66_linear_1512_12172)"/>
<path d="M1297.32 51.8087L1293.58 46.8454H1291.95V54.905H1293.69V49.7849L1297.57 54.905H1299.06V46.8454H1297.32V51.8087Z" fill="url(#paint67_linear_1512_12172)"/>
<path d="M1281.68 46.7796L1278.25 54.905H1280.04L1280.78 53.1039H1284.17L1284.89 54.905H1286.71L1283.31 46.7796H1281.68ZM1281.41 51.5355L1282.47 48.9197L1283.53 51.5355H1281.41Z" fill="url(#paint68_linear_1512_12172)"/>
<path d="M1308.59 46.7138C1308.03 46.6962 1307.48 46.7909 1306.97 46.9924C1306.45 47.1939 1305.98 47.4981 1305.59 47.8867C1305.19 48.2754 1304.88 48.7405 1304.66 49.2544C1304.45 49.7683 1304.34 50.3204 1304.34 50.8777C1304.34 51.433 1304.45 51.9835 1304.66 52.4959C1304.87 53.0083 1305.18 53.4721 1305.58 53.8593C1305.97 54.2464 1306.44 54.549 1306.95 54.7487C1307.47 54.9485 1308.02 55.0412 1308.57 55.0214C1309.12 55.0404 1309.67 54.9468 1310.19 54.746C1310.71 54.5452 1311.18 54.2414 1311.57 53.8528C1311.97 53.4642 1312.29 52.9986 1312.5 52.484C1312.72 51.9694 1312.83 51.4162 1312.83 50.8575C1312.83 50.3006 1312.73 49.7488 1312.51 49.2353C1312.3 48.7218 1311.98 48.2574 1311.59 47.8701C1311.19 47.4827 1310.72 47.1806 1310.2 46.9818C1309.69 46.7831 1309.14 46.6919 1308.59 46.7138ZM1311 50.898C1311.01 51.2263 1310.96 51.5543 1310.85 51.8621C1310.73 52.1698 1310.56 52.4507 1310.33 52.6876C1310.11 52.9244 1309.84 53.1123 1309.54 53.2395C1309.24 53.3668 1308.91 53.4308 1308.59 53.4277C1308.26 53.4265 1307.94 53.3596 1307.64 53.2309C1307.34 53.1022 1307.07 52.9143 1306.85 52.6785C1306.62 52.4426 1306.45 52.1634 1306.33 51.8576C1306.21 51.5518 1306.16 51.2254 1306.17 50.898C1306.15 50.5708 1306.2 50.2437 1306.32 49.9366C1306.43 49.6296 1306.6 49.3491 1306.83 49.1123C1307.05 48.8755 1307.32 48.6874 1307.62 48.5595C1307.92 48.4315 1308.24 48.3665 1308.57 48.3683C1308.89 48.3674 1309.22 48.4328 1309.52 48.5606C1309.82 48.6884 1310.09 48.8759 1310.32 49.112C1310.54 49.3481 1310.72 49.628 1310.84 49.9348C1310.95 50.2417 1311.01 50.5692 1311 50.898Z" fill="url(#paint69_linear_1512_12172)"/>
<path d="M1395.13 36.9846V1.26H1401.65V18.9781L1426.13 1.26H1434.97L1414.29 15.735L1435.88 36.9846H1427.27L1409.72 18.9073L1401.65 24.6092V36.9846H1395.13Z" fill="url(#paint70_linear_1512_12172)"/>
<path d="M1448.96 1.26H1442.44V36.9846H1448.96V1.26Z" fill="url(#paint71_linear_1512_12172)"/>
<path d="M1460.18 36.9846V1.26H1466.71V18.9781L1491.19 1.26H1500.04L1479.35 15.735L1500.94 36.9846H1492.33L1474.78 18.9073L1466.71 24.6092V36.9846H1460.18Z" fill="url(#paint72_linear_1512_12172)"/>
<path d="M1511.13 19.6611C1511.13 23.9616 1512.72 27.3565 1515.9 29.8457C1519.09 32.335 1523.1 33.5711 1527.94 33.5543C1532.85 33.5543 1536.89 32.3029 1540.05 29.8002C1543.21 27.2975 1544.8 23.7458 1544.82 19.1451C1544.87 16.4692 1544.16 13.8335 1542.77 11.5559C1541.34 9.30076 1539.26 7.53662 1536.82 6.4965C1534.06 5.25964 1531.08 4.63829 1528.06 4.67511C1523.45 4.67511 1519.47 5.82866 1516.13 8.13576C1512.79 10.4429 1511.13 14.2779 1511.15 19.6409M1504.42 19.57C1504.41 13.6505 1506.6 9.02284 1511.01 5.687C1515.41 2.35115 1521.08 0.664679 1528.01 0.627576C1532.23 0.563472 1536.41 1.36743 1540.31 2.99033C1543.97 4.56886 1546.74 6.7714 1548.63 9.59793C1550.56 12.4098 1551.57 15.7572 1551.52 19.1754C1551.57 22.6567 1550.51 26.0622 1548.51 28.8996C1546.35 31.872 1543.36 34.1338 1539.93 35.401C1536.12 36.8865 1532.06 37.6315 1527.97 37.5968C1523.7 37.6673 1519.46 36.8384 1515.52 35.1632C1511.86 33.534 1509.09 31.3146 1507.21 28.505C1505.39 25.8925 1504.41 22.7825 1504.39 19.5903" fill="url(#paint73_linear_1512_12172)"/>
<path d="M1446.89 46.8454L1444.58 52.0819L1442.36 46.8454H1440.62L1438.92 54.905H1440.75L1441.85 49.7647L1444.16 54.905H1444.99L1447.33 49.6888L1448.45 54.905H1450.29L1448.65 46.8454H1446.89Z" fill="url(#paint74_linear_1512_12172)"/>
<path d="M1465.89 46.8454H1464.13V54.905H1469.87V53.2911H1465.89V46.8454Z" fill="url(#paint75_linear_1512_12172)"/>
<path d="M1457.61 46.8454H1455.85V54.905H1457.61V46.8454Z" fill="url(#paint76_linear_1512_12172)"/>
<path d="M1493.72 51.8087L1489.98 46.8454H1488.35V54.905H1490.09V49.7849L1493.97 54.905H1495.46V46.8454H1493.72V51.8087Z" fill="url(#paint77_linear_1512_12172)"/>
<path d="M1478.08 46.7796L1474.65 54.905H1476.44L1477.18 53.1039H1480.57L1481.29 54.905H1483.11L1479.71 46.7796H1478.08ZM1477.81 51.5355L1478.87 48.9197L1479.93 51.5355H1477.81Z" fill="url(#paint78_linear_1512_12172)"/>
<path d="M1504.99 46.7138C1504.43 46.6962 1503.88 46.7909 1503.37 46.9924C1502.85 47.1939 1502.38 47.4981 1501.99 47.8867C1501.59 48.2754 1501.28 48.7405 1501.06 49.2544C1500.85 49.7683 1500.74 50.3204 1500.74 50.8777C1500.74 51.433 1500.85 51.9835 1501.06 52.4959C1501.27 53.0083 1501.58 53.4721 1501.98 53.8593C1502.37 54.2464 1502.84 54.549 1503.35 54.7487C1503.87 54.9485 1504.42 55.0412 1504.97 55.0214C1505.52 55.0404 1506.07 54.9468 1506.59 54.746C1507.11 54.5452 1507.58 54.2414 1507.97 53.8528C1508.37 53.4642 1508.69 52.9986 1508.9 52.484C1509.12 51.9694 1509.23 51.4162 1509.23 50.8575C1509.23 50.3006 1509.13 49.7488 1508.91 49.2353C1508.7 48.7218 1508.38 48.2574 1507.99 47.8701C1507.59 47.4827 1507.12 47.1806 1506.6 46.9818C1506.09 46.7831 1505.54 46.6919 1504.99 46.7138ZM1507.4 50.898C1507.41 51.2263 1507.36 51.5543 1507.25 51.8621C1507.14 52.1698 1506.96 52.4507 1506.73 52.6876C1506.51 52.9244 1506.24 53.1123 1505.94 53.2395C1505.64 53.3668 1505.31 53.4308 1504.99 53.4277C1504.66 53.4265 1504.34 53.3596 1504.04 53.2309C1503.74 53.1022 1503.47 52.9143 1503.25 52.6785C1503.02 52.4426 1502.85 52.1634 1502.73 51.8576C1502.61 51.5518 1502.56 51.2254 1502.57 50.898C1502.55 50.5708 1502.6 50.2437 1502.72 49.9366C1502.83 49.6296 1503 49.3491 1503.23 49.1123C1503.45 48.8755 1503.72 48.6874 1504.02 48.5595C1504.32 48.4315 1504.64 48.3665 1504.97 48.3683C1505.29 48.3674 1505.62 48.4328 1505.92 48.5606C1506.22 48.6884 1506.49 48.8759 1506.72 49.112C1506.94 49.3481 1507.12 49.628 1507.24 49.9348C1507.35 50.2417 1507.41 50.5692 1507.4 50.898Z" fill="url(#paint79_linear_1512_12172)"/>
<defs>
<linearGradient id="paint0_linear_1512_12172" x1="1551.53" y1="37.7283" x2="20.3254" y2="37.7283" gradientUnits="userSpaceOnUse">
<stop stop-color="#C11490"/>
<stop offset="0.325681" stop-color="#A8353B"/>
<stop offset="0.698567" stop-color="#EE856E"/>
<stop offset="1" stop-color="#C11490"/>
</linearGradient>
<linearGradient id="paint1_linear_1512_12172" x1="1551.53" y1="37.7283" x2="20.3254" y2="37.7283" gradientUnits="userSpaceOnUse">
<stop stop-color="#C11490"/>
<stop offset="0.325681" stop-color="#A8353B"/>
<stop offset="0.698567" stop-color="#EE856E"/>
<stop offset="1" stop-color="#C11490"/>
</linearGradient>
<linearGradient id="paint2_linear_1512_12172" x1="1551.53" y1="37.7283" x2="20.3254" y2="37.7283" gradientUnits="userSpaceOnUse">
<stop stop-color="#C11490"/>
<stop offset="0.325681" stop-color="#A8353B"/>
<stop offset="0.698567" stop-color="#EE856E"/>
<stop offset="1" stop-color="#C11490"/>
</linearGradient>
<linearGradient id="paint3_linear_1512_12172" x1="1551.53" y1="37.7283" x2="20.3254" y2="37.7283" gradientUnits="userSpaceOnUse">
<stop stop-color="#C11490"/>
<stop offset="0.325681" stop-color="#A8353B"/>
<stop offset="0.698567" stop-color="#EE856E"/>
<stop offset="1" stop-color="#C11490"/>
</linearGradient>
<linearGradient id="paint4_linear_1512_12172" x1="1551.53" y1="37.7283" x2="20.3254" y2="37.7283" gradientUnits="userSpaceOnUse">
<stop stop-color="#C11490"/>
<stop offset="0.325681" stop-color="#A8353B"/>
<stop offset="0.698567" stop-color="#EE856E"/>
<stop offset="1" stop-color="#C11490"/>
</linearGradient>
<linearGradient id="paint5_linear_1512_12172" x1="1551.53" y1="37.7283" x2="20.3254" y2="37.7283" gradientUnits="userSpaceOnUse">
<stop stop-color="#C11490"/>
<stop offset="0.325681" stop-color="#A8353B"/>
<stop offset="0.698567" stop-color="#EE856E"/>
<stop offset="1" stop-color="#C11490"/>
</linearGradient>
<linearGradient id="paint6_linear_1512_12172" x1="1551.53" y1="37.7283" x2="20.3254" y2="37.7283" gradientUnits="userSpaceOnUse">
<stop stop-color="#C11490"/>
<stop offset="0.325681" stop-color="#A8353B"/>
<stop offset="0.698567" stop-color="#EE856E"/>
<stop offset="1" stop-color="#C11490"/>
</linearGradient>
<linearGradient id="paint7_linear_1512_12172" x1="1551.53" y1="37.7283" x2="20.3254" y2="37.7283" gradientUnits="userSpaceOnUse">
<stop stop-color="#C11490"/>
<stop offset="0.325681" stop-color="#A8353B"/>
<stop offset="0.698567" stop-color="#EE856E"/>
<stop offset="1" stop-color="#C11490"/>
</linearGradient>
<linearGradient id="paint8_linear_1512_12172" x1="1551.53" y1="37.7283" x2="20.3254" y2="37.7283" gradientUnits="userSpaceOnUse">
<stop stop-color="#C11490"/>
<stop offset="0.325681" stop-color="#A8353B"/>
<stop offset="0.698567" stop-color="#EE856E"/>
<stop offset="1" stop-color="#C11490"/>
</linearGradient>
<linearGradient id="paint9_linear_1512_12172" x1="1551.53" y1="37.7283" x2="20.3254" y2="37.7283" gradientUnits="userSpaceOnUse">
<stop stop-color="#C11490"/>
<stop offset="0.325681" stop-color="#A8353B"/>
<stop offset="0.698567" stop-color="#EE856E"/>
<stop offset="1" stop-color="#C11490"/>
</linearGradient>
<linearGradient id="paint10_linear_1512_12172" x1="1551.53" y1="37.7283" x2="20.3254" y2="37.7283" gradientUnits="userSpaceOnUse">
<stop stop-color="#C11490"/>
<stop offset="0.325681" stop-color="#A8353B"/>
<stop offset="0.698567" stop-color="#EE856E"/>
<stop offset="1" stop-color="#C11490"/>
</linearGradient>
<linearGradient id="paint11_linear_1512_12172" x1="1551.53" y1="37.7283" x2="20.3254" y2="37.7283" gradientUnits="userSpaceOnUse">
<stop stop-color="#C11490"/>
<stop offset="0.325681" stop-color="#A8353B"/>
<stop offset="0.698567" stop-color="#EE856E"/>
<stop offset="1" stop-color="#C11490"/>
</linearGradient>
<linearGradient id="paint12_linear_1512_12172" x1="1551.53" y1="37.7283" x2="20.3254" y2="37.7283" gradientUnits="userSpaceOnUse">
<stop stop-color="#C11490"/>
<stop offset="0.325681" stop-color="#A8353B"/>
<stop offset="0.698567" stop-color="#EE856E"/>
<stop offset="1" stop-color="#C11490"/>
</linearGradient>
<linearGradient id="paint13_linear_1512_12172" x1="1551.53" y1="37.7283" x2="20.3254" y2="37.7283" gradientUnits="userSpaceOnUse">
<stop stop-color="#C11490"/>
<stop offset="0.325681" stop-color="#A8353B"/>
<stop offset="0.698567" stop-color="#EE856E"/>
<stop offset="1" stop-color="#C11490"/>
</linearGradient>
<linearGradient id="paint14_linear_1512_12172" x1="1551.53" y1="37.7283" x2="20.3254" y2="37.7283" gradientUnits="userSpaceOnUse">
<stop stop-color="#C11490"/>
<stop offset="0.325681" stop-color="#A8353B"/>
<stop offset="0.698567" stop-color="#EE856E"/>
<stop offset="1" stop-color="#C11490"/>
</linearGradient>
<linearGradient id="paint15_linear_1512_12172" x1="1551.53" y1="37.7283" x2="20.3254" y2="37.7283" gradientUnits="userSpaceOnUse">
<stop stop-color="#C11490"/>
<stop offset="0.325681" stop-color="#A8353B"/>
<stop offset="0.698567" stop-color="#EE856E"/>
<stop offset="1" stop-color="#C11490"/>
</linearGradient>
<linearGradient id="paint16_linear_1512_12172" x1="1551.53" y1="37.7283" x2="20.3254" y2="37.7283" gradientUnits="userSpaceOnUse">
<stop stop-color="#C11490"/>
<stop offset="0.325681" stop-color="#A8353B"/>
<stop offset="0.698567" stop-color="#EE856E"/>
<stop offset="1" stop-color="#C11490"/>
</linearGradient>
<linearGradient id="paint17_linear_1512_12172" x1="1551.53" y1="37.7283" x2="20.3254" y2="37.7283" gradientUnits="userSpaceOnUse">
<stop stop-color="#C11490"/>
<stop offset="0.325681" stop-color="#A8353B"/>
<stop offset="0.698567" stop-color="#EE856E"/>
<stop offset="1" stop-color="#C11490"/>
</linearGradient>
<linearGradient id="paint18_linear_1512_12172" x1="1551.53" y1="37.7283" x2="20.3254" y2="37.7283" gradientUnits="userSpaceOnUse">
<stop stop-color="#C11490"/>
<stop offset="0.325681" stop-color="#A8353B"/>
<stop offset="0.698567" stop-color="#EE856E"/>
<stop offset="1" stop-color="#C11490"/>
</linearGradient>
<linearGradient id="paint19_linear_1512_12172" x1="1551.53" y1="37.7283" x2="20.3254" y2="37.7283" gradientUnits="userSpaceOnUse">
<stop stop-color="#C11490"/>
<stop offset="0.325681" stop-color="#A8353B"/>
<stop offset="0.698567" stop-color="#EE856E"/>
<stop offset="1" stop-color="#C11490"/>
</linearGradient>
<linearGradient id="paint20_linear_1512_12172" x1="1551.53" y1="37.7283" x2="20.3254" y2="37.7283" gradientUnits="userSpaceOnUse">
<stop stop-color="#C11490"/>
<stop offset="0.325681" stop-color="#A8353B"/>
<stop offset="0.698567" stop-color="#EE856E"/>
<stop offset="1" stop-color="#C11490"/>
</linearGradient>
<linearGradient id="paint21_linear_1512_12172" x1="1551.53" y1="37.7283" x2="20.3254" y2="37.7283" gradientUnits="userSpaceOnUse">
<stop stop-color="#C11490"/>
<stop offset="0.325681" stop-color="#A8353B"/>
<stop offset="0.698567" stop-color="#EE856E"/>
<stop offset="1" stop-color="#C11490"/>
</linearGradient>
<linearGradient id="paint22_linear_1512_12172" x1="1551.53" y1="37.7283" x2="20.3254" y2="37.7283" gradientUnits="userSpaceOnUse">
<stop stop-color="#C11490"/>
<stop offset="0.325681" stop-color="#A8353B"/>
<stop offset="0.698567" stop-color="#EE856E"/>
<stop offset="1" stop-color="#C11490"/>
</linearGradient>
<linearGradient id="paint23_linear_1512_12172" x1="1551.53" y1="37.7283" x2="20.3254" y2="37.7283" gradientUnits="userSpaceOnUse">
<stop stop-color="#C11490"/>
<stop offset="0.325681" stop-color="#A8353B"/>
<stop offset="0.698567" stop-color="#EE856E"/>
<stop offset="1" stop-color="#C11490"/>
</linearGradient>
<linearGradient id="paint24_linear_1512_12172" x1="1551.53" y1="37.7283" x2="20.3254" y2="37.7283" gradientUnits="userSpaceOnUse">
<stop stop-color="#C11490"/>
<stop offset="0.325681" stop-color="#A8353B"/>
<stop offset="0.698567" stop-color="#EE856E"/>
<stop offset="1" stop-color="#C11490"/>
</linearGradient>
<linearGradient id="paint25_linear_1512_12172" x1="1551.53" y1="37.7283" x2="20.3254" y2="37.7283" gradientUnits="userSpaceOnUse">
<stop stop-color="#C11490"/>
<stop offset="0.325681" stop-color="#A8353B"/>
<stop offset="0.698567" stop-color="#EE856E"/>
<stop offset="1" stop-color="#C11490"/>
</linearGradient>
<linearGradient id="paint26_linear_1512_12172" x1="1551.53" y1="37.7283" x2="20.3254" y2="37.7283" gradientUnits="userSpaceOnUse">
<stop stop-color="#C11490"/>
<stop offset="0.325681" stop-color="#A8353B"/>
<stop offset="0.698567" stop-color="#EE856E"/>
<stop offset="1" stop-color="#C11490"/>
</linearGradient>
<linearGradient id="paint27_linear_1512_12172" x1="1551.53" y1="37.7283" x2="20.3254" y2="37.7283" gradientUnits="userSpaceOnUse">
<stop stop-color="#C11490"/>
<stop offset="0.325681" stop-color="#A8353B"/>
<stop offset="0.698567" stop-color="#EE856E"/>
<stop offset="1" stop-color="#C11490"/>
</linearGradient>
<linearGradient id="paint28_linear_1512_12172" x1="1551.53" y1="37.7283" x2="20.3254" y2="37.7283" gradientUnits="userSpaceOnUse">
<stop stop-color="#C11490"/>
<stop offset="0.325681" stop-color="#A8353B"/>
<stop offset="0.698567" stop-color="#EE856E"/>
<stop offset="1" stop-color="#C11490"/>
</linearGradient>
<linearGradient id="paint29_linear_1512_12172" x1="1551.53" y1="37.7283" x2="20.3254" y2="37.7283" gradientUnits="userSpaceOnUse">
<stop stop-color="#C11490"/>
<stop offset="0.325681" stop-color="#A8353B"/>
<stop offset="0.698567" stop-color="#EE856E"/>
<stop offset="1" stop-color="#C11490"/>
</linearGradient>
<linearGradient id="paint30_linear_1512_12172" x1="1551.53" y1="37.7283" x2="20.3254" y2="37.7283" gradientUnits="userSpaceOnUse">
<stop stop-color="#C11490"/>
<stop offset="0.325681" stop-color="#A8353B"/>
<stop offset="0.698567" stop-color="#EE856E"/>
<stop offset="1" stop-color="#C11490"/>
</linearGradient>
<linearGradient id="paint31_linear_1512_12172" x1="1551.53" y1="37.7283" x2="20.3254" y2="37.7283" gradientUnits="userSpaceOnUse">
<stop stop-color="#C11490"/>
<stop offset="0.325681" stop-color="#A8353B"/>
<stop offset="0.698567" stop-color="#EE856E"/>
<stop offset="1" stop-color="#C11490"/>
</linearGradient>
<linearGradient id="paint32_linear_1512_12172" x1="1551.53" y1="37.7283" x2="20.3254" y2="37.7283" gradientUnits="userSpaceOnUse">
<stop stop-color="#C11490"/>
<stop offset="0.325681" stop-color="#A8353B"/>
<stop offset="0.698567" stop-color="#EE856E"/>
<stop offset="1" stop-color="#C11490"/>
</linearGradient>
<linearGradient id="paint33_linear_1512_12172" x1="1551.53" y1="37.7283" x2="20.3254" y2="37.7283" gradientUnits="userSpaceOnUse">
<stop stop-color="#C11490"/>
<stop offset="0.325681" stop-color="#A8353B"/>
<stop offset="0.698567" stop-color="#EE856E"/>
<stop offset="1" stop-color="#C11490"/>
</linearGradient>
<linearGradient id="paint34_linear_1512_12172" x1="1551.53" y1="37.7283" x2="20.3254" y2="37.7283" gradientUnits="userSpaceOnUse">
<stop stop-color="#C11490"/>
<stop offset="0.325681" stop-color="#A8353B"/>
<stop offset="0.698567" stop-color="#EE856E"/>
<stop offset="1" stop-color="#C11490"/>
</linearGradient>
<linearGradient id="paint35_linear_1512_12172" x1="1551.53" y1="37.7283" x2="20.3254" y2="37.7283" gradientUnits="userSpaceOnUse">
<stop stop-color="#C11490"/>
<stop offset="0.325681" stop-color="#A8353B"/>
<stop offset="0.698567" stop-color="#EE856E"/>
<stop offset="1" stop-color="#C11490"/>
</linearGradient>
<linearGradient id="paint36_linear_1512_12172" x1="1551.53" y1="37.7283" x2="20.3254" y2="37.7283" gradientUnits="userSpaceOnUse">
<stop stop-color="#C11490"/>
<stop offset="0.325681" stop-color="#A8353B"/>
<stop offset="0.698567" stop-color="#EE856E"/>
<stop offset="1" stop-color="#C11490"/>
</linearGradient>
<linearGradient id="paint37_linear_1512_12172" x1="1551.53" y1="37.7283" x2="20.3254" y2="37.7283" gradientUnits="userSpaceOnUse">
<stop stop-color="#C11490"/>
<stop offset="0.325681" stop-color="#A8353B"/>
<stop offset="0.698567" stop-color="#EE856E"/>
<stop offset="1" stop-color="#C11490"/>
</linearGradient>
<linearGradient id="paint38_linear_1512_12172" x1="1551.53" y1="37.7283" x2="20.3254" y2="37.7283" gradientUnits="userSpaceOnUse">
<stop stop-color="#C11490"/>
<stop offset="0.325681" stop-color="#A8353B"/>
<stop offset="0.698567" stop-color="#EE856E"/>
<stop offset="1" stop-color="#C11490"/>
</linearGradient>
<linearGradient id="paint39_linear_1512_12172" x1="1551.53" y1="37.7283" x2="20.3254" y2="37.7283" gradientUnits="userSpaceOnUse">
<stop stop-color="#C11490"/>
<stop offset="0.325681" stop-color="#A8353B"/>
<stop offset="0.698567" stop-color="#EE856E"/>
<stop offset="1" stop-color="#C11490"/>
</linearGradient>
<linearGradient id="paint40_linear_1512_12172" x1="1551.53" y1="37.7283" x2="20.3254" y2="37.7283" gradientUnits="userSpaceOnUse">
<stop stop-color="#C11490"/>
<stop offset="0.325681" stop-color="#A8353B"/>
<stop offset="0.698567" stop-color="#EE856E"/>
<stop offset="1" stop-color="#C11490"/>
</linearGradient>
<linearGradient id="paint41_linear_1512_12172" x1="1551.53" y1="37.7283" x2="20.3254" y2="37.7283" gradientUnits="userSpaceOnUse">
<stop stop-color="#C11490"/>
<stop offset="0.325681" stop-color="#A8353B"/>
<stop offset="0.698567" stop-color="#EE856E"/>
<stop offset="1" stop-color="#C11490"/>
</linearGradient>
<linearGradient id="paint42_linear_1512_12172" x1="1551.53" y1="37.7283" x2="20.3254" y2="37.7283" gradientUnits="userSpaceOnUse">
<stop stop-color="#C11490"/>
<stop offset="0.325681" stop-color="#A8353B"/>
<stop offset="0.698567" stop-color="#EE856E"/>
<stop offset="1" stop-color="#C11490"/>
</linearGradient>
<linearGradient id="paint43_linear_1512_12172" x1="1551.53" y1="37.7283" x2="20.3254" y2="37.7283" gradientUnits="userSpaceOnUse">
<stop stop-color="#C11490"/>
<stop offset="0.325681" stop-color="#A8353B"/>
<stop offset="0.698567" stop-color="#EE856E"/>
<stop offset="1" stop-color="#C11490"/>
</linearGradient>
<linearGradient id="paint44_linear_1512_12172" x1="1551.53" y1="37.7283" x2="20.3254" y2="37.7283" gradientUnits="userSpaceOnUse">
<stop stop-color="#C11490"/>
<stop offset="0.325681" stop-color="#A8353B"/>
<stop offset="0.698567" stop-color="#EE856E"/>
<stop offset="1" stop-color="#C11490"/>
</linearGradient>
<linearGradient id="paint45_linear_1512_12172" x1="1551.53" y1="37.7283" x2="20.3254" y2="37.7283" gradientUnits="userSpaceOnUse">
<stop stop-color="#C11490"/>
<stop offset="0.325681" stop-color="#A8353B"/>
<stop offset="0.698567" stop-color="#EE856E"/>
<stop offset="1" stop-color="#C11490"/>
</linearGradient>
<linearGradient id="paint46_linear_1512_12172" x1="1551.53" y1="37.7283" x2="20.3254" y2="37.7283" gradientUnits="userSpaceOnUse">
<stop stop-color="#C11490"/>
<stop offset="0.325681" stop-color="#A8353B"/>
<stop offset="0.698567" stop-color="#EE856E"/>
<stop offset="1" stop-color="#C11490"/>
</linearGradient>
<linearGradient id="paint47_linear_1512_12172" x1="1551.53" y1="37.7283" x2="20.3254" y2="37.7283" gradientUnits="userSpaceOnUse">
<stop stop-color="#C11490"/>
<stop offset="0.325681" stop-color="#A8353B"/>
<stop offset="0.698567" stop-color="#EE856E"/>
<stop offset="1" stop-color="#C11490"/>
</linearGradient>
<linearGradient id="paint48_linear_1512_12172" x1="1551.53" y1="37.7283" x2="20.3254" y2="37.7283" gradientUnits="userSpaceOnUse">
<stop stop-color="#C11490"/>
<stop offset="0.325681" stop-color="#A8353B"/>
<stop offset="0.698567" stop-color="#EE856E"/>
<stop offset="1" stop-color="#C11490"/>
</linearGradient>
<linearGradient id="paint49_linear_1512_12172" x1="1551.53" y1="37.7283" x2="20.3254" y2="37.7283" gradientUnits="userSpaceOnUse">
<stop stop-color="#C11490"/>
<stop offset="0.325681" stop-color="#A8353B"/>
<stop offset="0.698567" stop-color="#EE856E"/>
<stop offset="1" stop-color="#C11490"/>
</linearGradient>
<linearGradient id="paint50_linear_1512_12172" x1="1551.53" y1="37.7283" x2="20.3254" y2="37.7283" gradientUnits="userSpaceOnUse">
<stop stop-color="#C11490"/>
<stop offset="0.325681" stop-color="#A8353B"/>
<stop offset="0.698567" stop-color="#EE856E"/>
<stop offset="1" stop-color="#C11490"/>
</linearGradient>
<linearGradient id="paint51_linear_1512_12172" x1="1551.53" y1="37.7283" x2="20.3254" y2="37.7283" gradientUnits="userSpaceOnUse">
<stop stop-color="#C11490"/>
<stop offset="0.325681" stop-color="#A8353B"/>
<stop offset="0.698567" stop-color="#EE856E"/>
<stop offset="1" stop-color="#C11490"/>
</linearGradient>
<linearGradient id="paint52_linear_1512_12172" x1="1551.53" y1="37.7283" x2="20.3254" y2="37.7283" gradientUnits="userSpaceOnUse">
<stop stop-color="#C11490"/>
<stop offset="0.325681" stop-color="#A8353B"/>
<stop offset="0.698567" stop-color="#EE856E"/>
<stop offset="1" stop-color="#C11490"/>
</linearGradient>
<linearGradient id="paint53_linear_1512_12172" x1="1551.53" y1="37.7283" x2="20.3254" y2="37.7283" gradientUnits="userSpaceOnUse">
<stop stop-color="#C11490"/>
<stop offset="0.325681" stop-color="#A8353B"/>
<stop offset="0.698567" stop-color="#EE856E"/>
<stop offset="1" stop-color="#C11490"/>
</linearGradient>
<linearGradient id="paint54_linear_1512_12172" x1="1551.53" y1="37.7283" x2="20.3254" y2="37.7283" gradientUnits="userSpaceOnUse">
<stop stop-color="#C11490"/>
<stop offset="0.325681" stop-color="#A8353B"/>
<stop offset="0.698567" stop-color="#EE856E"/>
<stop offset="1" stop-color="#C11490"/>
</linearGradient>
<linearGradient id="paint55_linear_1512_12172" x1="1551.53" y1="37.7283" x2="20.3254" y2="37.7283" gradientUnits="userSpaceOnUse">
<stop stop-color="#C11490"/>
<stop offset="0.325681" stop-color="#A8353B"/>
<stop offset="0.698567" stop-color="#EE856E"/>
<stop offset="1" stop-color="#C11490"/>
</linearGradient>
<linearGradient id="paint56_linear_1512_12172" x1="1551.53" y1="37.7283" x2="20.3254" y2="37.7283" gradientUnits="userSpaceOnUse">
<stop stop-color="#C11490"/>
<stop offset="0.325681" stop-color="#A8353B"/>
<stop offset="0.698567" stop-color="#EE856E"/>
<stop offset="1" stop-color="#C11490"/>
</linearGradient>
<linearGradient id="paint57_linear_1512_12172" x1="1551.53" y1="37.7283" x2="20.3254" y2="37.7283" gradientUnits="userSpaceOnUse">
<stop stop-color="#C11490"/>
<stop offset="0.325681" stop-color="#A8353B"/>
<stop offset="0.698567" stop-color="#EE856E"/>
<stop offset="1" stop-color="#C11490"/>
</linearGradient>
<linearGradient id="paint58_linear_1512_12172" x1="1551.53" y1="37.7283" x2="20.3254" y2="37.7283" gradientUnits="userSpaceOnUse">
<stop stop-color="#C11490"/>
<stop offset="0.325681" stop-color="#A8353B"/>
<stop offset="0.698567" stop-color="#EE856E"/>
<stop offset="1" stop-color="#C11490"/>
</linearGradient>
<linearGradient id="paint59_linear_1512_12172" x1="1551.53" y1="37.7283" x2="20.3254" y2="37.7283" gradientUnits="userSpaceOnUse">
<stop stop-color="#C11490"/>
<stop offset="0.325681" stop-color="#A8353B"/>
<stop offset="0.698567" stop-color="#EE856E"/>
<stop offset="1" stop-color="#C11490"/>
</linearGradient>
<linearGradient id="paint60_linear_1512_12172" x1="1551.53" y1="37.7283" x2="20.3254" y2="37.7283" gradientUnits="userSpaceOnUse">
<stop stop-color="#C11490"/>
<stop offset="0.325681" stop-color="#A8353B"/>
<stop offset="0.698567" stop-color="#EE856E"/>
<stop offset="1" stop-color="#C11490"/>
</linearGradient>
<linearGradient id="paint61_linear_1512_12172" x1="1551.53" y1="37.7283" x2="20.3254" y2="37.7283" gradientUnits="userSpaceOnUse">
<stop stop-color="#C11490"/>
<stop offset="0.325681" stop-color="#A8353B"/>
<stop offset="0.698567" stop-color="#EE856E"/>
<stop offset="1" stop-color="#C11490"/>
</linearGradient>
<linearGradient id="paint62_linear_1512_12172" x1="1551.53" y1="37.7283" x2="20.3254" y2="37.7283" gradientUnits="userSpaceOnUse">
<stop stop-color="#C11490"/>
<stop offset="0.325681" stop-color="#A8353B"/>
<stop offset="0.698567" stop-color="#EE856E"/>
<stop offset="1" stop-color="#C11490"/>
</linearGradient>
<linearGradient id="paint63_linear_1512_12172" x1="1551.53" y1="37.7283" x2="20.3254" y2="37.7283" gradientUnits="userSpaceOnUse">
<stop stop-color="#C11490"/>
<stop offset="0.325681" stop-color="#A8353B"/>
<stop offset="0.698567" stop-color="#EE856E"/>
<stop offset="1" stop-color="#C11490"/>
</linearGradient>
<linearGradient id="paint64_linear_1512_12172" x1="1551.53" y1="37.7283" x2="20.3254" y2="37.7283" gradientUnits="userSpaceOnUse">
<stop stop-color="#C11490"/>
<stop offset="0.325681" stop-color="#A8353B"/>
<stop offset="0.698567" stop-color="#EE856E"/>
<stop offset="1" stop-color="#C11490"/>
</linearGradient>
<linearGradient id="paint65_linear_1512_12172" x1="1551.53" y1="37.7283" x2="20.3254" y2="37.7283" gradientUnits="userSpaceOnUse">
<stop stop-color="#C11490"/>
<stop offset="0.325681" stop-color="#A8353B"/>
<stop offset="0.698567" stop-color="#EE856E"/>
<stop offset="1" stop-color="#C11490"/>
</linearGradient>
<linearGradient id="paint66_linear_1512_12172" x1="1551.53" y1="37.7283" x2="20.3254" y2="37.7283" gradientUnits="userSpaceOnUse">
<stop stop-color="#C11490"/>
<stop offset="0.325681" stop-color="#A8353B"/>
<stop offset="0.698567" stop-color="#EE856E"/>
<stop offset="1" stop-color="#C11490"/>
</linearGradient>
<linearGradient id="paint67_linear_1512_12172" x1="1551.53" y1="37.7283" x2="20.3254" y2="37.7283" gradientUnits="userSpaceOnUse">
<stop stop-color="#C11490"/>
<stop offset="0.325681" stop-color="#A8353B"/>
<stop offset="0.698567" stop-color="#EE856E"/>
<stop offset="1" stop-color="#C11490"/>
</linearGradient>
<linearGradient id="paint68_linear_1512_12172" x1="1551.53" y1="37.7283" x2="20.3254" y2="37.7283" gradientUnits="userSpaceOnUse">
<stop stop-color="#C11490"/>
<stop offset="0.325681" stop-color="#A8353B"/>
<stop offset="0.698567" stop-color="#EE856E"/>
<stop offset="1" stop-color="#C11490"/>
</linearGradient>
<linearGradient id="paint69_linear_1512_12172" x1="1551.53" y1="37.7283" x2="20.3254" y2="37.7283" gradientUnits="userSpaceOnUse">
<stop stop-color="#C11490"/>
<stop offset="0.325681" stop-color="#A8353B"/>
<stop offset="0.698567" stop-color="#EE856E"/>
<stop offset="1" stop-color="#C11490"/>
</linearGradient>
<linearGradient id="paint70_linear_1512_12172" x1="1551.53" y1="37.7283" x2="20.3254" y2="37.7283" gradientUnits="userSpaceOnUse">
<stop stop-color="#C11490"/>
<stop offset="0.325681" stop-color="#A8353B"/>
<stop offset="0.698567" stop-color="#EE856E"/>
<stop offset="1" stop-color="#C11490"/>
</linearGradient>
<linearGradient id="paint71_linear_1512_12172" x1="1551.53" y1="37.7283" x2="20.3254" y2="37.7283" gradientUnits="userSpaceOnUse">
<stop stop-color="#C11490"/>
<stop offset="0.325681" stop-color="#A8353B"/>
<stop offset="0.698567" stop-color="#EE856E"/>
<stop offset="1" stop-color="#C11490"/>
</linearGradient>
<linearGradient id="paint72_linear_1512_12172" x1="1551.53" y1="37.7283" x2="20.3254" y2="37.7283" gradientUnits="userSpaceOnUse">
<stop stop-color="#C11490"/>
<stop offset="0.325681" stop-color="#A8353B"/>
<stop offset="0.698567" stop-color="#EE856E"/>
<stop offset="1" stop-color="#C11490"/>
</linearGradient>
<linearGradient id="paint73_linear_1512_12172" x1="1551.53" y1="37.7283" x2="20.3254" y2="37.7283" gradientUnits="userSpaceOnUse">
<stop stop-color="#C11490"/>
<stop offset="0.325681" stop-color="#A8353B"/>
<stop offset="0.698567" stop-color="#EE856E"/>
<stop offset="1" stop-color="#C11490"/>
</linearGradient>
<linearGradient id="paint74_linear_1512_12172" x1="1551.53" y1="37.7283" x2="20.3254" y2="37.7283" gradientUnits="userSpaceOnUse">
<stop stop-color="#C11490"/>
<stop offset="0.325681" stop-color="#A8353B"/>
<stop offset="0.698567" stop-color="#EE856E"/>
<stop offset="1" stop-color="#C11490"/>
</linearGradient>
<linearGradient id="paint75_linear_1512_12172" x1="1551.53" y1="37.7283" x2="20.3254" y2="37.7283" gradientUnits="userSpaceOnUse">
<stop stop-color="#C11490"/>
<stop offset="0.325681" stop-color="#A8353B"/>
<stop offset="0.698567" stop-color="#EE856E"/>
<stop offset="1" stop-color="#C11490"/>
</linearGradient>
<linearGradient id="paint76_linear_1512_12172" x1="1551.53" y1="37.7283" x2="20.3254" y2="37.7283" gradientUnits="userSpaceOnUse">
<stop stop-color="#C11490"/>
<stop offset="0.325681" stop-color="#A8353B"/>
<stop offset="0.698567" stop-color="#EE856E"/>
<stop offset="1" stop-color="#C11490"/>
</linearGradient>
<linearGradient id="paint77_linear_1512_12172" x1="1551.53" y1="37.7283" x2="20.3254" y2="37.7283" gradientUnits="userSpaceOnUse">
<stop stop-color="#C11490"/>
<stop offset="0.325681" stop-color="#A8353B"/>
<stop offset="0.698567" stop-color="#EE856E"/>
<stop offset="1" stop-color="#C11490"/>
</linearGradient>
<linearGradient id="paint78_linear_1512_12172" x1="1551.53" y1="37.7283" x2="20.3254" y2="37.7283" gradientUnits="userSpaceOnUse">
<stop stop-color="#C11490"/>
<stop offset="0.325681" stop-color="#A8353B"/>
<stop offset="0.698567" stop-color="#EE856E"/>
<stop offset="1" stop-color="#C11490"/>
</linearGradient>
<linearGradient id="paint79_linear_1512_12172" x1="1551.53" y1="37.7283" x2="20.3254" y2="37.7283" gradientUnits="userSpaceOnUse">
<stop stop-color="#C11490"/>
<stop offset="0.325681" stop-color="#A8353B"/>
<stop offset="0.698567" stop-color="#EE856E"/>
<stop offset="1" stop-color="#C11490"/>
</linearGradient>
</defs>
</svg>
