<svg width="237" height="135" viewBox="0 0 237 135" fill="none" xmlns="http://www.w3.org/2000/svg">
<g filter="url(#filter0_d_908_434827)">
<path d="M40 76.3605V40.636H46.5264V58.3541L71.0018 40.636H79.8408L59.1679 55.111L80.7538 76.3605H72.1456L54.5929 58.2832L46.5264 63.9852V76.3605H40Z" fill="white"/>
<path d="M93.8368 40.636H87.3104V76.3605H93.8368V40.636Z" fill="white"/>
<path d="M105.059 76.3605V40.636H111.585V58.3541L136.065 40.636H144.91L124.227 55.111L145.817 76.3605H137.204L119.657 58.2832L111.585 63.9852V76.3605H105.059Z" fill="white"/>
<path d="M156.001 59.0371C156.001 63.3376 157.593 66.7325 160.777 69.2217C163.96 71.7109 167.974 72.9471 172.816 72.9303C177.729 72.9303 181.766 71.6789 184.926 69.1762C188.086 66.6734 189.675 63.1217 189.692 58.521C189.749 55.8452 189.039 53.2095 187.645 50.9319C186.213 48.6767 184.137 46.9126 181.69 45.8725C178.937 44.6356 175.951 44.0143 172.937 44.0511C168.321 44.0511 164.343 45.2046 161.002 47.5117C157.661 49.8188 156.003 53.6539 156.026 59.0169M149.299 58.946C149.282 53.0265 151.476 48.3988 155.881 45.063C160.285 41.7271 165.952 40.0407 172.881 40.0036C177.1 39.9394 181.287 40.7434 185.187 42.3663C188.842 43.9448 191.615 46.1474 193.504 48.9739C195.432 51.7857 196.443 55.1332 196.399 58.5514C196.443 62.0327 195.389 65.4382 193.389 68.2756C191.225 71.248 188.239 73.5097 184.806 74.7769C180.99 76.2625 176.931 77.0075 172.841 76.9727C168.57 77.0432 164.331 76.2144 160.395 74.5392C156.737 72.91 153.968 70.6906 152.088 67.881C150.269 65.2685 149.284 62.1585 149.264 58.9663" fill="white"/>
<path d="M91.765 86.2214L89.4524 91.4579L87.2301 86.2214H85.4944L83.7988 94.281H85.6248L86.7284 89.1406L89.036 94.281H89.8688L92.2064 89.0648L93.3251 94.281H95.1661L93.5207 86.2214H91.765Z" fill="white"/>
<path d="M110.767 86.2214H109.007V94.281H114.74V92.6671H110.767V86.2214Z" fill="white"/>
<path d="M102.485 86.2214H100.724V94.281H102.485V86.2214Z" fill="white"/>
<path d="M138.594 91.1847L134.851 86.2214H133.226V94.281H134.962V89.1609L138.845 94.281H140.334V86.2214H138.594V91.1847Z" fill="white"/>
<path d="M122.957 86.1556L119.526 94.281H121.312L122.054 92.4799H125.441L126.163 94.281H127.989L124.583 86.1556H122.957ZM122.687 90.9114L123.745 88.2957L124.808 90.9114H122.687Z" fill="white"/>
<path d="M149.861 86.0898C149.308 86.0721 148.758 86.1669 148.243 86.3684C147.728 86.5699 147.258 86.8741 146.862 87.2627C146.466 87.6513 146.151 88.1165 145.938 88.6304C145.724 89.1443 145.615 89.6964 145.617 90.2537C145.612 90.809 145.72 91.3594 145.932 91.8719C146.144 92.3843 146.457 92.848 146.851 93.2352C147.246 93.6224 147.714 93.925 148.228 94.1247C148.742 94.3245 149.29 94.4172 149.841 94.3974C150.394 94.4164 150.946 94.3227 151.463 94.122C151.98 93.9212 152.452 93.6174 152.85 93.2288C153.247 92.8401 153.564 92.3746 153.779 91.86C153.995 91.3453 154.106 90.7922 154.105 90.2335C154.109 89.6766 154 89.1248 153.787 88.6113C153.573 88.0978 153.258 87.6334 152.862 87.246C152.465 86.8587 151.994 86.5565 151.479 86.3578C150.963 86.1591 150.412 86.0679 149.861 86.0898ZM152.274 90.274C152.289 90.6022 152.238 90.9303 152.124 91.238C152.01 91.5458 151.834 91.8267 151.608 92.0636C151.382 92.3004 151.111 92.4882 150.81 92.6155C150.51 92.7428 150.187 92.8068 149.861 92.8037C149.536 92.8025 149.215 92.7356 148.916 92.6069C148.617 92.4782 148.347 92.2903 148.121 92.0544C147.896 91.8185 147.72 91.5394 147.603 91.2336C147.487 90.9277 147.432 90.6014 147.443 90.274C147.426 89.9468 147.476 89.6197 147.59 89.3126C147.703 89.0056 147.877 88.7251 148.102 88.4883C148.326 88.2515 148.596 88.0634 148.895 87.9355C149.194 87.8075 149.516 87.7424 149.841 87.7442C150.167 87.7434 150.49 87.8088 150.79 87.9366C151.091 88.0644 151.363 88.2519 151.59 88.488C151.817 88.7241 151.994 89.0039 152.112 89.3108C152.229 89.6176 152.284 89.9452 152.274 90.274Z" fill="white"/>
</g>
<defs>
<filter id="filter0_d_908_434827" x="0" y="0" width="236.4" height="134.4" filterUnits="userSpaceOnUse" color-interpolation-filters="sRGB">
<feFlood flood-opacity="0" result="BackgroundImageFix"/>
<feColorMatrix in="SourceAlpha" type="matrix" values="0 0 0 0 0 0 0 0 0 0 0 0 0 0 0 0 0 0 127 0" result="hardAlpha"/>
<feOffset/>
<feGaussianBlur stdDeviation="20"/>
<feComposite in2="hardAlpha" operator="out"/>
<feColorMatrix type="matrix" values="0 0 0 0 0 0 0 0 0 0 0 0 0 0 0 0 0 0 0.4 0"/>
<feBlend mode="normal" in2="BackgroundImageFix" result="effect1_dropShadow_908_434827"/>
<feBlend mode="normal" in="SourceGraphic" in2="effect1_dropShadow_908_434827" result="shape"/>
</filter>
</defs>
</svg>
